<?xml version="1.0" encoding="UTF-8"?>
<svg version="1.1" xmlns="http://www.w3.org/2000/svg" width="1080" height="1080">
<path d="M0 0 C11.69999714 -0.02313372 23.39998887 -0.04092036 35.1000042 -0.05181217 C40.53233521 -0.05703874 45.96465062 -0.0641323 51.39697266 -0.07543945 C56.63593831 -0.08627634 61.87488891 -0.09227855 67.1138649 -0.09487724 C69.11621462 -0.09673004 71.11856348 -0.10034789 73.12090683 -0.10573006 C75.91769972 -0.11295109 78.71442982 -0.11399049 81.51123047 -0.11352539 C82.76279434 -0.1189183 82.76279434 -0.1189183 84.03964233 -0.12442017 C89.77189568 -0.11405216 89.77189568 -0.11405216 92 1 C92 20.47 92 39.94 92 60 C93.87567086 59.37477638 95.74250485 58.72156068 97.59375 58.02734375 C99.03234375 57.48787109 99.03234375 57.48787109 100.5 56.9375 C101.93859375 56.39416016 101.93859375 56.39416016 103.40625 55.83984375 C106 55 106 55 109 55 C109 54.34 109 53.68 109 53 C114.13120675 50.91978105 119.25689167 49.39590065 124.625 48.0625 C125.33978516 47.88428711 126.05457031 47.70607422 126.79101562 47.52246094 C131.84473908 46.26933912 136.90852563 45.09103022 142 44 C142 43.67 142 43.34 142 43 C151.97257561 41.87354671 161.90757562 41.84640251 171.92797852 41.86962891 C174.69227531 41.87500929 177.45641112 41.86964438 180.22070312 41.86328125 C182.00520869 41.8639418 183.78971415 41.86522249 185.57421875 41.8671875 C186.38694748 41.86516327 187.19967621 41.86313904 188.03703308 41.86105347 C198.6139027 41.90371835 208.2999861 43.75920412 218.47265625 46.5390625 C221.96462751 47.48436381 225.44196326 48.34313168 229 49 C229 49.66 229 50.32 229 51 C230.2375 51.12375 231.475 51.2475 232.75 51.375 C235.98616951 51.69861695 238.11913873 52.52677497 241 54 C244.34726348 55.23190559 247.69820626 56.4456205 251.06835938 57.61328125 C255.4035519 59.18158895 258.4462802 60.98745581 262 64 C263.64273043 64.85986671 265.31013506 65.67442037 267 66.4375 C271.1620605 68.44486546 273.80293675 70.63467027 277 74 C279.10358218 75.37465728 281.24046139 76.64662042 283.42578125 77.88671875 C283.94527344 78.25410156 284.46476562 78.62148438 285 79 C285 79.66 285 80.32 285 81 C285.58007812 81.26425781 286.16015625 81.52851563 286.7578125 81.80078125 C292.81795477 85.04200717 297.56965659 90.37204958 301.7734375 95.71484375 C302.17820312 96.13894531 302.58296875 96.56304687 303 97 C303.66 97 304.32 97 305 97 C306.2065625 95.7934375 306.2065625 95.7934375 307.4375 94.5625 C310 92 310 92 313 91 C313.68126524 89.67406641 314.34595942 88.339572 315 87 C316.8046875 85.18359375 316.8046875 85.18359375 318.875 83.4375 C319.55304688 82.85871094 320.23109375 82.27992188 320.9296875 81.68359375 C322.91731628 80.06723902 324.94301413 78.5266692 327 77 C327.68320312 76.47019531 328.36640625 75.94039063 329.0703125 75.39453125 C329.74835938 74.87246094 330.42640625 74.35039062 331.125 73.8125 C331.80820312 73.28269531 332.49140625 72.75289063 333.1953125 72.20703125 C335 71 335 71 337 71 C337 70.34 337 69.68 337 69 C338.56119422 68.20576139 340.12401964 67.41472877 341.6875 66.625 C342.55761719 66.18414062 343.42773438 65.74328125 344.32421875 65.2890625 C347 64 347 64 349.76953125 62.9609375 C352.16124381 62.21458745 352.16124381 62.21458745 353 60 C354.8984375 59.10546875 354.8984375 59.10546875 357.375 58.1875 C362.2305776 56.32910627 366.93849732 54.2415329 371.65234375 52.05078125 C379.98120689 48.32288743 388.94028127 46.56991723 398 46 C398 45.34 398 44.68 398 44 C399.98 44.33 401.96 44.66 404 45 C404 44.34 404 43.68 404 43 C410.21758901 42.21696947 416.2683372 41.85176728 422.53125 41.8671875 C423.40720825 41.86623077 424.2831665 41.86527405 425.18566895 41.86428833 C427.02433342 41.86361256 428.86300036 41.86542441 430.70166016 41.86962891 C433.49256829 41.87498574 436.28331553 41.86966326 439.07421875 41.86328125 C440.87239618 41.86394214 442.67057352 41.86522352 444.46875 41.8671875 C445.70195984 41.86415115 445.70195984 41.86415115 446.96008301 41.86105347 C452.37675168 41.88263574 457.62482959 42.32306196 463 43 C463 43.66 463 44.32 463 45 C466.465 44.505 466.465 44.505 470 44 C470 44.66 470 45.32 470 46 C470.59425781 46.03738281 471.18851563 46.07476562 471.80078125 46.11328125 C481.3244073 46.86865439 490.16653056 49.41886374 499 53 C499 53.66 499 54.32 499 55 C499.78375 55.0825 500.5675 55.165 501.375 55.25 C506.177645 56.24365069 510.49809489 58.08713518 515 60 C515 60.66 515 61.32 515 62 C515.66 62.061875 516.32 62.12375 517 62.1875 C520.51909338 63.14058779 523.01800713 64.74461859 526.03515625 66.74609375 C527.96976903 67.98070748 529.93154786 69.00953851 532 70 C532 70.66 532 71.32 532 72 C532.57878906 72.28230469 533.15757812 72.56460938 533.75390625 72.85546875 C539.63693838 75.85325729 544.43401458 79.19369956 549 84 C550.09508715 84.90690988 551.19943065 85.80275257 552.3125 86.6875 C553.199375 87.450625 554.08625 88.21375 555 89 C555 89.66 555 90.32 555 91 C555.99 91.33 556.98 91.66 558 92 C558 92.66 558 93.32 558 94 C558.99 94.33 559.98 94.66 561 95 C564 98.44444444 564 98.44444444 564 101 C564.99 101.33 565.98 101.66 567 102 C567 102.66 567 103.32 567 104 C567.99 104.33 568.98 104.66 570 105 C571.31640625 106.55859375 571.31640625 106.55859375 572.5625 108.4375 C573.96589896 110.53166854 575.20558012 112.20558012 577 114 C577.33 114.99 577.66 115.98 578 117 C578.66 117.33 579.32 117.66 580 118 C581.12253962 120.28015861 582.04602194 122.61361667 583 124.96875 C583.82709949 127.16560255 583.82709949 127.16560255 586 128 C586.85622329 129.84641349 587.63618537 131.72855225 588.375 133.625 C590.27581144 138.35164684 592.33861168 142.66292273 595 147 C595.33 147 595.66 147 596 147 C596.67286212 149.41509441 597.33846012 151.83180356 598 154.25 C598.28617188 155.27287109 598.28617188 155.27287109 598.578125 156.31640625 C599.49957044 159.70600912 600 162.45778976 600 166 C600.66 166 601.32 166 602 166 C602.12117187 166.71027344 602.24234375 167.42054688 602.3671875 168.15234375 C602.61855469 169.53099609 602.61855469 169.53099609 602.875 170.9375 C603.03742187 171.85402344 603.19984375 172.77054688 603.3671875 173.71484375 C603.57601562 174.46894531 603.78484375 175.22304688 604 176 C604.66 176.33 605.32 176.66 606 177 C606.49811189 180.08398907 606.85635034 183.08077234 607.125 186.1875 C607.20919189 187.11336914 607.29338379 188.03923828 607.38012695 188.99316406 C607.96714463 196.08019811 608.18162741 203.14005624 608.1875 210.25 C608.18830566 211.20801514 608.18911133 212.16603027 608.18994141 213.15307617 C608.13480858 219.86519142 608.13480858 219.86519142 607 221 C605.62386177 221.09644787 604.24280167 221.12371912 602.86328793 221.12304783 C601.51745236 221.1260344 601.51745236 221.1260344 600.14442819 221.12908131 C599.14736732 221.12616847 598.15030645 221.12325563 597.12303162 221.12025452 C596.07270423 221.12110894 595.02237685 221.12196337 593.94022137 221.12284368 C590.39168992 221.12450162 586.84320489 221.118972 583.29467773 221.11352539 C580.76254274 221.11324356 578.23040766 221.11340117 575.69827271 221.1139679 C570.23181496 221.11419622 564.76537239 221.11134473 559.29891777 221.10573006 C551.39525699 221.09761737 543.49160198 221.09500007 535.58793748 221.09374207 C522.76605987 221.09155118 509.94418861 221.08489011 497.12231445 221.07543945 C484.66398144 221.06626628 472.20565016 221.05918498 459.74731445 221.05493164 C458.97991931 221.05466892 458.21252417 221.05440619 457.42187463 221.05413551 C453.57223897 221.05283051 449.72260329 221.05156679 445.8729676 221.05032361 C413.91530712 221.03994986 381.95765444 221.02233056 350 221 C350.33 222.98 350.66 224.96 351 227 C351.33 227 351.66 227 352 227 C352.08636719 227.94359375 352.17273438 228.8871875 352.26171875 229.859375 C353.13255515 237.81674249 354.5504562 244.36961862 357.9765625 251.70703125 C359 254 359 254 359 256 C359.66 256.33 360.32 256.66 361 257 C362.2890625 258.77734375 362.2890625 258.77734375 363.625 260.9375 C364.07101562 261.64777344 364.51703125 262.35804688 364.9765625 263.08984375 C366 265 366 265 366 267 C366.66 267 367.32 267 368 267 C369.5078125 268.4609375 369.5078125 268.4609375 371.125 270.375 C371.66382813 271.00148438 372.20265625 271.62796875 372.7578125 272.2734375 C374 274 374 274 374 276 C374.8353125 276.3403125 374.8353125 276.3403125 375.6875 276.6875 C378.62504721 278.35475652 380.61811438 280.61811438 383 283 C384.96672915 284.1500831 384.96672915 284.1500831 387 285 C389.75 286.5 389.75 286.5 392 288 C392 288.66 392 289.32 392 290 C392.53625 290.12375 393.0725 290.2475 393.625 290.375 C396.4638286 291.12206016 399.22223202 292.05303364 402 293 C402 293.66 402 294.32 402 295 C404.31 294.67 406.62 294.34 409 294 C409.33 294.66 409.66 295.32 410 296 C412.08611558 296.650539 412.08611558 296.650539 414.5 297.0625 C418.90606654 297.90606654 418.90606654 297.90606654 420 299 C429.0913833 300.29074571 438.33751688 300.16812128 447.49902344 300.20532227 C449.0180181 300.21492516 450.53701023 300.22493655 452.05599976 300.23532104 C456.1419193 300.26211539 460.22785009 300.28326112 464.31380749 300.30332303 C468.59791751 300.32534168 472.88199389 300.35265192 477.16607666 300.37937927 C485.26174865 300.42909322 493.35743953 300.47411014 501.45314813 300.51740164 C510.67697328 300.56695723 519.90076464 300.62180681 529.12455702 300.67708123 C548.08300656 300.79057389 567.04148809 300.89748286 586 301 C586 301.99 586 302.98 586 304 C585.34 304 584.68 304 584 304 C583.71125 304.9075 583.4225 305.815 583.125 306.75 C582.23468224 309.32202908 581.28505587 311.61346766 580 314 C579.34 314 578.68 314 578 314 C577.34 315.65 576.68 317.3 576 319 C575.34 319 574.68 319 574 319 C573.71125 319.763125 573.4225 320.52625 573.125 321.3125 C572 324 572 324 570 327 C569.34 327 568.68 327 568 327 C567.773125 327.721875 567.54625 328.44375 567.3125 329.1875 C565.72668125 332.58568303 563.73876676 334.45230999 561 337 C560.154375 337.845625 559.30875 338.69125 558.4375 339.5625 C557.633125 340.366875 556.82875 341.17125 556 342 C555.278125 342.763125 554.55625 343.52625 553.8125 344.3125 C552 346 552 346 550 346 C550 346.66 550 347.32 550 348 C548.34151823 349.01351664 546.67334039 350.01120795 545 351 C544.4225 351.598125 543.845 352.19625 543.25 352.8125 C540.52922496 355.45769796 537.55446061 357.35282952 534.37890625 359.4140625 C531.42422424 361.38385051 528.62345312 363.5200743 525.82421875 365.703125 C523.94488237 367.03918427 522.07028746 367.98828765 520 369 C519.37593262 369.31203369 518.75186523 369.62406738 518.10888672 369.94555664 C512.73925781 372.63037109 507.36962891 375.31518555 502 378 C501.34 377.67 500.68 377.34 500 377 C500 377.66 500 378.32 500 379 C499.02417969 379.26554687 498.04835938 379.53109375 497.04296875 379.8046875 C495.75773414 380.16117593 494.47258216 380.51796239 493.1875 380.875 C491.92292969 381.22304688 490.65835937 381.57109375 489.35546875 381.9296875 C485.91591287 382.85700295 485.91591287 382.85700295 483 385 C480.35982365 385.81779841 477.69729409 386.3809489 475 387 C475 387.33 475 387.66 475 388 C474.07380859 387.96519531 474.07380859 387.96519531 473.12890625 387.9296875 C468.8100478 387.83765703 464.83125896 387.89558264 460.625 388.9375 C443.16013624 393.19060154 423.60953103 391.68653202 406 389 C400.58414586 388.24084364 400.58414586 388.24084364 395.125 388.0625 C393 388 393 388 391 386 C388.80295489 385.32348793 388.80295489 385.32348793 386.375 384.875 C385.55773437 384.70742188 384.74046875 384.53984375 383.8984375 384.3671875 C383.27195312 384.24601562 382.64546875 384.12484375 382 384 C382 383.34 382 382.68 382 382 C380.80375 381.87625 379.6075 381.7525 378.375 381.625 C374.72403187 381.17674946 371.45475101 380.29553163 368 379 C368 378.34 368 377.68 368 377 C366.35 377.33 364.7 377.66 363 378 C362.67 377.34 362.34 376.68 362 376 C359.94953741 374.93422284 357.85859982 373.94556046 355.75 373 C354.61046875 372.484375 353.4709375 371.96875 352.296875 371.4375 C350.30920569 370.5708385 348.30210468 369.74476971 346.265625 369 C343.86983563 367.94254814 342.77240938 366.8887092 341 365 C339.41471114 363.84855095 337.80850917 362.72559301 336.1875 361.625 C333.19591243 359.5666482 330.30998572 357.49971127 327.5625 355.125 C325.12065807 352.8390195 325.12065807 352.8390195 322 352 C322 351.34 322 350.68 322 350 C321.01 349.67 320.02 349.34 319 349 C319 348.34 319 347.68 319 347 C318.13375 346.5978125 318.13375 346.5978125 317.25 346.1875 C314.94449957 344.97070811 312.97943808 343.69666121 311 342 C311 341.34 311 340.68 311 340 C310.34 340 309.68 340 309 340 C309 339.34 309 338.68 309 338 C308.34 338 307.68 338 307 338 C305.62689293 336.70766393 304.28965176 335.37562854 303 334 C303 334.66 303 335.32 303 336 C302.34 336 301.68 336 301 336 C300.731875 336.598125 300.46375 337.19625 300.1875 337.8125 C299.00082594 339.99847854 297.90400887 341.41332594 296 343 C295.34 343 294.68 343 294 343 C294 343.66 294 344.32 294 345 C288.52380952 350 288.52380952 350 286 350 C286 350.66 286 351.32 286 352 C283.91015625 353.734375 283.91015625 353.734375 281.0625 355.75 C279.56396484 356.81154297 279.56396484 356.81154297 278.03515625 357.89453125 C277.03355469 358.58933594 276.03195312 359.28414062 275 360 C274.13246094 360.60199219 273.26492188 361.20398438 272.37109375 361.82421875 C266.4583663 365.84721123 266.4583663 365.84721123 263 367 C262.67 367.66 262.34 368.32 262 369 C260.28008564 369.87438599 258.52304752 370.67660661 256.75 371.4375 C252.97273147 373.065809 249.52046826 374.87944949 246 377 C244.3410119 377.55299603 242.68144589 378.10429977 241.01953125 378.6484375 C237.33638698 379.86094163 233.6800688 381.1029714 230.0625 382.5 C225.45384511 384.25966823 220.7368748 385.6313538 216 387 C216 387.33 216 387.66 216 388 C214.72125 387.95875 213.4425 387.9175 212.125 387.875 C208.65462282 387.86957754 205.51517702 388.20404824 202.125 388.9375 C182.60661636 393.12001078 161.2559261 391.75394513 141.6796875 388.4375 C138.7481351 387.9588792 135.96516439 387.92940085 133 388 C132.67 387.34 132.34 386.68 132 386 C129.74998736 385.3838935 129.74998736 385.3838935 127.125 385 C123.61979783 384.4277221 122.02930724 384.01953816 119 382 C117.39151141 381.43021336 115.76378203 380.91319509 114.125 380.4375 C112.86042969 380.06431641 112.86042969 380.06431641 111.5703125 379.68359375 C108.98665137 378.95387423 108.98665137 378.95387423 106.2421875 378.53515625 C105.50226563 378.35855469 104.76234375 378.18195313 104 378 C103.67 377.34 103.34 376.68 103 376 C101.13971608 374.9353274 99.2357306 373.94623892 97.3125 373 C96.27738281 372.484375 95.24226563 371.96875 94.17578125 371.4375 C91.02930534 369.94386363 91.02930534 369.94386363 87.7265625 368.9296875 C84.52983169 367.83968473 83.33157021 366.40222386 81 364 C79.25615862 362.9044573 77.47071904 361.92148892 75.6640625 360.93359375 C73.62261691 359.78827568 71.82682296 358.46145837 70 357 C69.195625 356.360625 68.39125 355.72125 67.5625 355.0625 C66.716875 354.381875 65.87125 353.70125 65 353 C64.175 352.360625 63.35 351.72125 62.5 351.0625 C59.82685723 348.85715721 57.44898385 346.44898385 55 344 C54.01 343.34 53.02 342.68 52 342 C52 341.34 52 340.68 52 340 C51.01 339.67 50.02 339.34 49 339 C47.62131719 337.37064759 46.28725907 335.70250393 45 334 C44.34 333.34 43.68 332.68 43 332 C41.73903389 330.27293421 40.5296128 328.51476716 39.31640625 326.75390625 C37.99759008 324.99678916 36.55534414 323.54728536 35 322 C34.07743314 320.83314783 33.18103819 319.64510715 32.3125 318.4375 C31.87550781 317.83808594 31.43851562 317.23867188 30.98828125 316.62109375 C30 315 30 315 30 313 C29.01 312.67 28.02 312.34 27 312 C25.83203125 310.2578125 25.83203125 310.2578125 24.8125 308.125 C24.46832031 307.42632813 24.12414062 306.72765625 23.76953125 306.0078125 C23 304 23 304 23 301 C22.34 301 21.68 301 21 301 C17.81282473 296.84778362 16.04626484 292.86722982 14.375 287.875 C12.90809396 283.37761104 12.90809396 283.37761104 11.00390625 279.0625 C9.45627411 275.88292891 8.54621963 272.51076418 7.5625 269.125 C7.34440674 268.38064697 7.12631348 267.63629395 6.90161133 266.86938477 C4.92188635 259.97882775 3.3718746 253.03782824 2 246 C1.67 246 1.34 246 1 246 C-0.0353554 233.01277725 -0.13645329 220.09241978 -0.11352539 207.0703125 C-0.11324275 204.80197145 -0.11340275 202.53363031 -0.1139679 200.26528931 C-0.11425288 194.15485327 -0.10840473 188.04443717 -0.10139394 181.93400574 C-0.09511038 175.53054914 -0.09455266 169.12709201 -0.09336853 162.72363281 C-0.09062117 151.9912068 -0.08439002 141.25878943 -0.07543945 130.52636719 C-0.06623686 119.48014359 -0.05917001 108.43392198 -0.05493164 97.38769531 C-0.05466892 96.70488991 -0.05440619 96.0220845 -0.05413551 95.31858802 C-0.05283031 91.89258179 -0.05156664 88.46657555 -0.05032361 85.04056931 C-0.03998512 56.69370789 -0.02232164 28.34685434 0 0 Z M165 132 C165 132.33 165 132.66 165 133 C171.27 133 177.54 133 184 133 C184 132.67 184 132.34 184 132 C177.73 132 171.46 132 165 132 Z M158 133 C158 133.66 158 134.32 158 135 C157.34773438 135.04898438 156.69546875 135.09796875 156.0234375 135.1484375 C151.06720147 135.57242229 146.66980549 136.15665573 142 138 C142 138.66 142 139.32 142 140 C141.21625 140.144375 140.4325 140.28875 139.625 140.4375 C137.03578982 140.87798925 137.03578982 140.87798925 135 142 C135 142.66 135 143.32 135 144 C134.278125 144.103125 133.55625 144.20625 132.8125 144.3125 C129.72206579 145.06793947 127.58256159 146.15531315 125 148 C125 148.66 125 149.32 125 150 C124.278125 150.226875 123.55625 150.45375 122.8125 150.6875 C119.41336784 152.27376168 117.59630797 154.29615264 115 157 C114.16339844 157.86238281 113.32679688 158.72476563 112.46484375 159.61328125 C107.56760016 164.84356768 103.86396344 169.43675044 101 176 C100.34 176.66 99.68 177.32 99 178 C98.10853773 179.80578254 97.2840491 181.64505457 96.5 183.5 C96.0771875 184.4796875 95.654375 185.459375 95.21875 186.46875 C91.90733751 196.06335542 91.60005575 205.56006704 91.625 215.625 C91.62454681 216.33388367 91.62409363 217.04276733 91.62362671 217.77313232 C91.64790012 230.67891922 92.56613972 242.48322123 99 254 C99.66 254.33 100.32 254.66 101 255 C101.7109375 256.70703125 101.7109375 256.70703125 102.375 258.8125 C103.65580724 262.44792257 105.1192278 264.3893002 108 267 C108.433125 267.78375 108.86625 268.5675 109.3125 269.375 C111.26229382 272.40801261 113.47754874 274.26708147 116.25 276.53125 C118 278 118 278 120.375 280.5 C126.49319381 286.32685125 135.31542713 293 144 293 C144.33 293.66 144.66 294.32 145 295 C146.87488261 295.84164709 146.87488261 295.84164709 149.125 296.5 C150.24261719 296.85578125 150.24261719 296.85578125 151.3828125 297.21875 C152.24648438 297.4765625 153.11015625 297.734375 154 298 C155.07378906 298.34675781 156.14757812 298.69351563 157.25390625 299.05078125 C161.48971461 300.12408827 165.46253325 300.49084189 169.8125 300.6875 C170.61147705 300.72512451 171.4104541 300.76274902 172.23364258 300.80151367 C183.44856828 301.25458435 195.78710613 300.10644694 206 295 C206 294.34 206 293.68 206 293 C206.804375 292.938125 207.60875 292.87625 208.4375 292.8125 C217.6296039 290.71605525 227.25757172 284.00974459 233.625 277.1875 C235.17739052 275.14841337 235.17739052 275.14841337 235 273 C235.928125 272.566875 235.928125 272.566875 236.875 272.125 C239.13325765 271.06279958 239.13325765 271.06279958 241 269 C241 268.01 241 267.02 241 266 C241.99 265.67 242.98 265.34 244 265 C248.11378912 259.50423485 250.77729799 253.44583583 253 247 C253.48533203 246.03126953 253.48533203 246.03126953 253.98046875 245.04296875 C255.02203401 242.95584756 255.81340289 240.89557158 256.5625 238.6875 C256.81128906 237.96949219 257.06007813 237.25148438 257.31640625 236.51171875 C259.14918668 229.7775598 259.18280223 223.04951732 259.1875 216.125 C259.19974609 215.18269531 259.21199219 214.24039063 259.22460938 213.26953125 C259.23712473 207.2371297 258.58694606 201.81661935 257 196 C256.7421875 195.02289062 256.484375 194.04578125 256.21875 193.0390625 C255.86296875 191.84410156 255.86296875 191.84410156 255.5 190.625 C255.2628125 189.81289063 255.025625 189.00078125 254.78125 188.1640625 C254.00865499 185.753838 254.00865499 185.753838 252 183 C250.97521026 180.47744064 250.03695442 177.93049946 249.09765625 175.375 C247.99366383 172.98629042 246.91487897 171.75573354 245 170 C244.54625 169.21625 244.0925 168.4325 243.625 167.625 C241.75300441 164.60100712 239.64228623 162.37128251 237 160 C236.34 160 235.68 160 235 160 C234.89292725 159.39406006 234.78585449 158.78812012 234.67553711 158.16381836 C233.55314886 154.56868751 230.45790158 152.7626589 227.5625 150.5625 C226.93375977 150.07676514 226.30501953 149.59103027 225.65722656 149.09057617 C217.57489199 142.69175653 217.57489199 142.69175653 208 140 C208 139.34 208 138.68 208 138 C196.54635743 134.60994026 185.91610503 133.36038184 174 133.25 C172.43486448 133.2217379 170.86975836 133.19179691 169.3046875 133.16015625 C165.53651375 133.08752682 161.76868284 133.03722473 158 133 Z M90 209 C90 213.62 90 218.24 90 223 C90.33 223 90.66 223 91 223 C91 218.38 91 213.76 91 209 C90.67 209 90.34 209 90 209 Z M100 255 C101 257 101 257 101 257 Z " fill="#29879E" transform="translate(238,349)"/>
<path d="M0 0 C11.69999714 -0.02313372 23.39998887 -0.04092036 35.1000042 -0.05181217 C40.53233521 -0.05703874 45.96465062 -0.0641323 51.39697266 -0.07543945 C56.63593831 -0.08627634 61.87488891 -0.09227855 67.1138649 -0.09487724 C69.11621462 -0.09673004 71.11856348 -0.10034789 73.12090683 -0.10573006 C75.91769972 -0.11295109 78.71442982 -0.11399049 81.51123047 -0.11352539 C82.76279434 -0.1189183 82.76279434 -0.1189183 84.03964233 -0.12442017 C89.77189568 -0.11405216 89.77189568 -0.11405216 92 1 C92 20.47 92 39.94 92 60 C93.87567086 59.37477638 95.74250485 58.72156068 97.59375 58.02734375 C99.03234375 57.48787109 99.03234375 57.48787109 100.5 56.9375 C101.93859375 56.39416016 101.93859375 56.39416016 103.40625 55.83984375 C106 55 106 55 109 55 C109 54.34 109 53.68 109 53 C114.13120675 50.91978105 119.25689167 49.39590065 124.625 48.0625 C125.33978516 47.88428711 126.05457031 47.70607422 126.79101562 47.52246094 C131.84473908 46.26933912 136.90852563 45.09103022 142 44 C142 43.67 142 43.34 142 43 C151.97257561 41.87354671 161.90757562 41.84640251 171.92797852 41.86962891 C174.69227531 41.87500929 177.45641112 41.86964438 180.22070312 41.86328125 C182.00520869 41.8639418 183.78971415 41.86522249 185.57421875 41.8671875 C186.38694748 41.86516327 187.19967621 41.86313904 188.03703308 41.86105347 C198.6139027 41.90371835 208.2999861 43.75920412 218.47265625 46.5390625 C221.96462751 47.48436381 225.44196326 48.34313168 229 49 C229 49.66 229 50.32 229 51 C230.2375 51.12375 231.475 51.2475 232.75 51.375 C235.98616951 51.69861695 238.11913873 52.52677497 241 54 C244.34726348 55.23190559 247.69820626 56.4456205 251.06835938 57.61328125 C255.4035519 59.18158895 258.4462802 60.98745581 262 64 C263.64273043 64.85986671 265.31013506 65.67442037 267 66.4375 C271.1620605 68.44486546 273.80293675 70.63467027 277 74 C279.10358218 75.37465728 281.24046139 76.64662042 283.42578125 77.88671875 C283.94527344 78.25410156 284.46476562 78.62148438 285 79 C285 79.66 285 80.32 285 81 C285.58007812 81.26425781 286.16015625 81.52851563 286.7578125 81.80078125 C292.78717637 85.02554555 297.53822764 90.34092047 301.7734375 95.6171875 C302.97175539 97.14103109 302.97175539 97.14103109 305 98 C303.66932878 102.73127546 300.80856057 105.69672104 297.55859375 109.23046875 C295.92943284 110.92814506 295.92943284 110.92814506 295 113 C294.34 113 293.68 113 293 113 C292.72800781 113.73734375 292.45601562 114.4746875 292.17578125 115.234375 C291.06164976 117.85498993 289.81797112 119.92690131 288.1875 122.25 C282.40902586 130.57400244 282.40902586 130.57400244 279 140 C278.34 140 277.68 140 277 140 C276.80470703 141.11181641 276.80470703 141.11181641 276.60546875 142.24609375 C276.05734074 144.7391921 275.34119296 146.74034501 274.3125 149.0625 C268.10539365 164.51279734 264.91402073 180.03418737 262.64868164 196.45947266 C262.55218826 197.1416687 262.45569489 197.82386475 262.35627747 198.5267334 C262.09312287 200.40099347 261.84161759 202.27687844 261.59082031 204.15283203 C261 207 261 207 259 209 C258.81824219 208.154375 258.63648438 207.30875 258.44921875 206.4375 C256.16216169 195.97149053 256.16216169 195.97149053 252 186.140625 C250.39636983 182.70785417 249.73165085 179.04226508 248.87890625 175.36328125 C248.44384766 174.19345703 248.44384766 174.19345703 248 173 C247.01 172.67 246.02 172.34 245 172 C244.38125 170.6696875 244.38125 170.6696875 243.75 169.3125 C241.80636842 165.63348309 239.79968954 163.93900865 236.5234375 161.4921875 C235 160 235 160 234.5390625 157.9453125 C234.20100615 155.83731219 234.20100615 155.83731219 232.21875 154.984375 C231.4865625 154.65953125 230.754375 154.3346875 230 154 C228.4785371 152.77621462 226.98040392 151.52314737 225.5 150.25 C220.10343093 145.83608977 214.32573404 142.86940513 208 140 C208 139.34 208 138.68 208 138 C207.030625 137.87625 206.06125 137.7525 205.0625 137.625 C202.36120874 137.25178872 199.94379175 136.71790022 197.28515625 136.0078125 C190.8091392 134.55278112 184.21462539 134.48836588 177.60644531 134.31201172 C175.37231648 134.24992543 173.13962162 134.16676223 170.90625 134.08203125 C169.46618431 134.03779175 168.02608024 133.99478074 166.5859375 133.953125 C165.2973584 133.91348633 164.0087793 133.87384766 162.68115234 133.83300781 C158.82097796 134.00812117 155.66528976 134.81462257 152 136 C150.19249678 136.39838846 148.38025996 136.7763885 146.5625 137.125 C145.69753906 137.29257812 144.83257812 137.46015625 143.94140625 137.6328125 C143.30074219 137.75398437 142.66007813 137.87515625 142 138 C142 138.66 142 139.32 142 140 C138.9746033 142.79267387 135.86135985 143.7391478 132 145 C130.32665961 145.98879205 128.65848177 146.98648336 127 148 C126.34 148 125.68 148 125 148 C125 148.66 125 149.32 125 150 C123.70794169 151.05278825 122.36365283 152.04175747 121 153 C117.2331379 155.85521816 114.04965245 158.93761557 110.875 162.4375 C110.02679688 163.36433594 109.17859375 164.29117188 108.3046875 165.24609375 C105.25168103 168.89417776 103.06029175 172.73455223 101 177 C100.525625 177.95132813 100.05125 178.90265625 99.5625 179.8828125 C99.046875 180.95273437 98.53125 182.02265625 98 183.125 C97.484375 184.17945313 96.96875 185.23390625 96.4375 186.3203125 C92.71380397 195.85216485 92.59860812 205.51104585 92.625 215.625 C92.62487915 216.33321899 92.6247583 217.04143799 92.62463379 217.77111816 C92.07029925 235.08071518 92.07029925 235.08071518 99.00390625 250.04296875 C99.99197266 251.01169922 99.99197266 251.01169922 101 252 C102.23046875 254.69140625 102.23046875 254.69140625 103.1875 257.5625 C103.51105469 258.51253906 103.83460938 259.46257812 104.16796875 260.44140625 C104.44253906 261.28574219 104.71710938 262.13007812 105 263 C105.495 264.485 105.495 264.485 106 266 C106.99 266.33 107.98 266.66 109 267 C109.4125 267.721875 109.825 268.44375 110.25 269.1875 C112.22810721 272.36660087 114.42580187 274.23744639 117.30078125 276.58203125 C119 278 119 278 121.125 280.25 C122.91922879 282.14353657 122.91922879 282.14353657 125.4375 282.9375 C128 284 128 284 130.0625 286.3125 C135.24525909 291.05417321 142.20850764 293.39936193 149 295 C149.763125 295.309375 150.52625 295.61875 151.3125 295.9375 C157.52787832 298.39474259 163.17592354 299.38663624 169.8125 299.6875 C170.60857666 299.72584961 171.40465332 299.76419922 172.22485352 299.80371094 C181.7974274 300.19837568 190.94891527 299.43317007 200 296 C200.33 295.34 200.66 294.68 201 294 C202.65797079 293.6258052 204.3269125 293.29944464 206 293 C214.06710527 290.20172286 220.54028545 286.46451755 227.23046875 281.20703125 C229 280 229 280 231 280 C231.3403125 279.1646875 231.3403125 279.1646875 231.6875 278.3125 C233.35666538 275.37158957 235.6135675 273.3864325 238 271 C238.7425 269.7625 238.7425 269.7625 239.5 268.5 C241 266 241 266 243.4375 263.75 C247.75924034 259.11203475 249.70843778 253.61647409 251.125 247.5 C251.41375 246.345 251.7025 245.19 252 244 C252.66 243.67 253.32 243.34 254 243 C256.29366159 237.88590286 257.41029674 232.54321063 258 227 C258.66 227 259.32 227 260 227 C260.04898437 227.64066406 260.09796875 228.28132812 260.1484375 228.94140625 C260.60477326 234.22073894 261.50611757 238.90322465 263 244 C263.35283306 245.99665218 263.68441028 247.99712351 264 250 C265.30182873 258.03953773 267.80512461 265.20284055 270.765625 272.76953125 C272.06909788 276.18083527 273.23410039 279.61329021 274.32421875 283.09765625 C274.97320256 285.06741279 274.97320256 285.06741279 276.08203125 287.05859375 C277 289 277 289 277 292 C277.66 292 278.32 292 279 292 C280.33819498 294.6226232 281.6707151 297.24786599 283 299.875 C283.3815625 300.62136719 283.763125 301.36773438 284.15625 302.13671875 C284.5171875 302.85214844 284.878125 303.56757812 285.25 304.3046875 C285.58515625 304.96452637 285.9203125 305.62436523 286.265625 306.30419922 C287 308 287 308 287 310 C287.99 310.33 288.98 310.66 290 311 C290 312.32 290 313.64 290 315 C290.66 315 291.32 315 292 315 C293.75644379 317.02643768 295.38714022 319.05161283 297 321.1875 C297.45117188 321.76564453 297.90234375 322.34378906 298.3671875 322.93945312 C300.8312572 326.16534319 302.70783868 329.10149055 304 333 C303.44570313 333.44730469 302.89140625 333.89460938 302.3203125 334.35546875 C298.26502931 337.73968195 295.84203963 340.00017816 294 345 C292.12249402 346.94724191 290.20480979 348.39232619 288 350 C287.34 350 286.68 350 286 350 C286 350.66 286 351.32 286 352 C283.91015625 353.734375 283.91015625 353.734375 281.0625 355.75 C279.56396484 356.81154297 279.56396484 356.81154297 278.03515625 357.89453125 C277.03355469 358.58933594 276.03195312 359.28414062 275 360 C274.13246094 360.60199219 273.26492188 361.20398438 272.37109375 361.82421875 C266.4583663 365.84721123 266.4583663 365.84721123 263 367 C262.67 367.66 262.34 368.32 262 369 C260.28008564 369.87438599 258.52304752 370.67660661 256.75 371.4375 C252.97273147 373.065809 249.52046826 374.87944949 246 377 C244.3410119 377.55299603 242.68144589 378.10429977 241.01953125 378.6484375 C237.33638698 379.86094163 233.6800688 381.1029714 230.0625 382.5 C225.45384511 384.25966823 220.7368748 385.6313538 216 387 C216 387.33 216 387.66 216 388 C214.72125 387.95875 213.4425 387.9175 212.125 387.875 C208.65462282 387.86957754 205.51517702 388.20404824 202.125 388.9375 C182.60661636 393.12001078 161.2559261 391.75394513 141.6796875 388.4375 C138.7481351 387.9588792 135.96516439 387.92940085 133 388 C132.67 387.34 132.34 386.68 132 386 C129.74998736 385.3838935 129.74998736 385.3838935 127.125 385 C123.61979783 384.4277221 122.02930724 384.01953816 119 382 C117.39151141 381.43021336 115.76378203 380.91319509 114.125 380.4375 C112.86042969 380.06431641 112.86042969 380.06431641 111.5703125 379.68359375 C108.98665137 378.95387423 108.98665137 378.95387423 106.2421875 378.53515625 C105.50226563 378.35855469 104.76234375 378.18195313 104 378 C103.67 377.34 103.34 376.68 103 376 C101.13971608 374.9353274 99.2357306 373.94623892 97.3125 373 C96.27738281 372.484375 95.24226563 371.96875 94.17578125 371.4375 C91.02930534 369.94386363 91.02930534 369.94386363 87.7265625 368.9296875 C84.52983169 367.83968473 83.33157021 366.40222386 81 364 C79.25615862 362.9044573 77.47071904 361.92148892 75.6640625 360.93359375 C73.62261691 359.78827568 71.82682296 358.46145837 70 357 C69.195625 356.360625 68.39125 355.72125 67.5625 355.0625 C66.716875 354.381875 65.87125 353.70125 65 353 C64.175 352.360625 63.35 351.72125 62.5 351.0625 C59.82685723 348.85715721 57.44898385 346.44898385 55 344 C54.01 343.34 53.02 342.68 52 342 C52 341.34 52 340.68 52 340 C51.01 339.67 50.02 339.34 49 339 C47.62131719 337.37064759 46.28725907 335.70250393 45 334 C44.34 333.34 43.68 332.68 43 332 C41.73903389 330.27293421 40.5296128 328.51476716 39.31640625 326.75390625 C37.99759008 324.99678916 36.55534414 323.54728536 35 322 C34.07743314 320.83314783 33.18103819 319.64510715 32.3125 318.4375 C31.87550781 317.83808594 31.43851562 317.23867188 30.98828125 316.62109375 C30 315 30 315 30 313 C29.01 312.67 28.02 312.34 27 312 C25.83203125 310.2578125 25.83203125 310.2578125 24.8125 308.125 C24.46832031 307.42632813 24.12414062 306.72765625 23.76953125 306.0078125 C23 304 23 304 23 301 C22.34 301 21.68 301 21 301 C17.81282473 296.84778362 16.04626484 292.86722982 14.375 287.875 C12.90809396 283.37761104 12.90809396 283.37761104 11.00390625 279.0625 C9.45627411 275.88292891 8.54621963 272.51076418 7.5625 269.125 C7.34440674 268.38064697 7.12631348 267.63629395 6.90161133 266.86938477 C4.92188635 259.97882775 3.3718746 253.03782824 2 246 C1.67 246 1.34 246 1 246 C-0.0353554 233.01277725 -0.13645329 220.09241978 -0.11352539 207.0703125 C-0.11324275 204.80197145 -0.11340275 202.53363031 -0.1139679 200.26528931 C-0.11425288 194.15485327 -0.10840473 188.04443717 -0.10139394 181.93400574 C-0.09511038 175.53054914 -0.09455266 169.12709201 -0.09336853 162.72363281 C-0.09062117 151.9912068 -0.08439002 141.25878943 -0.07543945 130.52636719 C-0.06623686 119.48014359 -0.05917001 108.43392198 -0.05493164 97.38769531 C-0.05466892 96.70488991 -0.05440619 96.0220845 -0.05413551 95.31858802 C-0.05283031 91.89258179 -0.05156664 88.46657555 -0.05032361 85.04056931 C-0.03998512 56.69370789 -0.02232164 28.34685434 0 0 Z M165 132 C165 132.33 165 132.66 165 133 C171.27 133 177.54 133 184 133 C184 132.67 184 132.34 184 132 C177.73 132 171.46 132 165 132 Z M90 209 C90 213.62 90 218.24 90 223 C90.33 223 90.66 223 91 223 C91 218.38 91 213.76 91 209 C90.67 209 90.34 209 90 209 Z M100 255 C101 257 101 257 101 257 Z " fill="#E8911B" transform="translate(238,349)"/>
<path d="M0 0 C1.78470703 0.76183594 1.78470703 0.76183594 3.60546875 1.5390625 C25.58633313 11.65457479 41.26942295 29.47659523 50.21777344 51.79296875 C53.95649653 62.3416756 54 72.83907041 54 84 C-2.43 84 -58.86 84 -117 84 C-117 68.73393102 -115.54328307 56.72847049 -109 43 C-108.71640625 42.32066406 -108.4328125 41.64132812 -108.140625 40.94140625 C-98.68900983 19.49693976 -78.43990054 6.35070188 -57.69140625 -2.39453125 C-40.07221959 -8.26759347 -16.93303018 -7.69505639 0 0 Z " fill="#A8C7D1" transform="translate(703,485)"/>
<path d="M0 0 C11.69999714 -0.02313372 23.39998887 -0.04092036 35.1000042 -0.05181217 C40.53233521 -0.05703874 45.96465062 -0.0641323 51.39697266 -0.07543945 C56.63593831 -0.08627634 61.87488891 -0.09227855 67.1138649 -0.09487724 C69.11621462 -0.09673004 71.11856348 -0.10034789 73.12090683 -0.10573006 C75.91769972 -0.11295109 78.71442982 -0.11399049 81.51123047 -0.11352539 C82.76279434 -0.1189183 82.76279434 -0.1189183 84.03964233 -0.12442017 C89.77189568 -0.11405216 89.77189568 -0.11405216 92 1 C92 20.47 92 39.94 92 60 C92.99 59.67 93.98 59.34 95 59 C97.33183607 58.32811503 99.66501142 57.66084583 102 57 C102.33 57.66 102.66 58.32 103 59 C101.35 59.33 99.7 59.66 98 60 C98 60.66 98 61.32 98 62 C91.375 66 91.375 66 88 66 C88 44.88 88 23.76 88 2 C59.95 2 31.9 2 3 2 C3.06158131 30.89218128 3.13381125 59.7842657 3.22898628 88.67635426 C3.24025219 92.10031654 3.251391 95.52427923 3.26245117 98.94824219 C3.2657567 99.97056111 3.2657567 99.97056111 3.269129 101.01353294 C3.30434019 111.99686914 3.32929511 122.9802053 3.35034702 133.96357673 C3.37223891 145.26385983 3.40562999 156.56407095 3.44870156 167.86429644 C3.47249122 174.1986816 3.49131289 180.53298768 3.49761391 186.86741638 C3.50372994 192.84939788 3.52396023 198.83117743 3.55427551 204.81308365 C3.56295262 206.98961603 3.56680025 209.16617491 3.56500816 211.34272385 C3.55651646 226.43710661 4.80029103 241.06797091 7 256 C7.17056772 257.16630967 7.17056772 257.16630967 7.34458125 258.35618114 C7.86785367 261.90904206 8.41185262 265.45727694 9 269 C8.34 268.67 7.68 268.34 7 268 C6.31396484 265.86694336 6.31396484 265.86694336 5.7109375 263.08984375 C5.49179688 262.10048828 5.27265625 261.11113281 5.046875 260.09179688 C4.82515625 259.05087891 4.6034375 258.00996094 4.375 256.9375 C4.14554688 255.89271484 3.91609375 254.84792969 3.6796875 253.77148438 C3.11224664 251.18253544 2.55272525 248.59212352 2 246 C1.67 246 1.34 246 1 246 C-0.0353554 233.01277725 -0.13645329 220.09241978 -0.11352539 207.0703125 C-0.11324275 204.80197145 -0.11340275 202.53363031 -0.1139679 200.26528931 C-0.11425288 194.15485327 -0.10840473 188.04443717 -0.10139394 181.93400574 C-0.09511038 175.53054914 -0.09455266 169.12709201 -0.09336853 162.72363281 C-0.09062117 151.9912068 -0.08439002 141.25878943 -0.07543945 130.52636719 C-0.06623686 119.48014359 -0.05917001 108.43392198 -0.05493164 97.38769531 C-0.05466892 96.70488991 -0.05440619 96.0220845 -0.05413551 95.31858802 C-0.05283031 91.89258179 -0.05156664 88.46657555 -0.05032361 85.04056931 C-0.03998512 56.69370789 -0.02232164 28.34685434 0 0 Z " fill="#F2B56D" transform="translate(238,349)"/>
<path d="M0 0 C0.99 0.495 0.99 0.495 2 1 C3.09601994 7.82584568 3.15252913 14.59936571 3.125 21.5 C3.12886719 22.5003125 3.13273437 23.500625 3.13671875 24.53125 C3.13478516 25.954375 3.13478516 25.954375 3.1328125 27.40625 C3.13168457 28.26541016 3.13055664 29.12457031 3.12939453 30.00976562 C3 32 3 32 2 33 C0.62386177 33.09644787 -0.75719833 33.12371912 -2.13671207 33.12304783 C-3.48254764 33.1260344 -3.48254764 33.1260344 -4.85557181 33.12908131 C-5.85263268 33.12616847 -6.84969355 33.12325563 -7.87696838 33.12025452 C-9.45245946 33.12153615 -9.45245946 33.12153615 -11.05977863 33.12284368 C-14.60831008 33.12450162 -18.15679511 33.118972 -21.70532227 33.11352539 C-24.23745726 33.11324356 -26.76959234 33.11340117 -29.30172729 33.1139679 C-34.76818504 33.11419622 -40.23462761 33.11134473 -45.70108223 33.10573006 C-53.60474301 33.09761737 -61.50839802 33.09500007 -69.41206252 33.09374207 C-82.23394013 33.09155118 -95.05581139 33.08489011 -107.87768555 33.07543945 C-120.33601856 33.06626628 -132.79434984 33.05918498 -145.25268555 33.05493164 C-146.02008069 33.05466892 -146.78747583 33.05440619 -147.57812537 33.05413551 C-151.42776103 33.05283051 -155.27739671 33.05156679 -159.1270324 33.05032361 C-191.08469288 33.03994986 -223.04234556 33.02233056 -255 33 C-255 32.67 -255 32.34 -255 32 C-199.23 32 -143.46 32 -86 32 C-86 27.71 -86 23.42 -86 19 C-85.67 19 -85.34 19 -85 19 C-85 22.63 -85 26.26 -85 30 C-56.29 30 -27.58 30 2 30 C1.34 27.36 0.68 24.72 0 22 C-0.3347168 19.17993164 -0.3347168 19.17993164 -0.44921875 16.66015625 C-0.49240234 15.74298828 -0.53558594 14.82582031 -0.58007812 13.88085938 C-0.61552734 12.95080078 -0.65097656 12.02074219 -0.6875 11.0625 C-0.75807617 9.62680664 -0.75807617 9.62680664 -0.83007812 8.16210938 C-1.05495895 2.96773105 -1.05495895 2.96773105 -1 1 C-0.67 0.67 -0.34 0.34 0 0 Z " fill="#3E646E" transform="translate(843,537)"/>
<path d="M0 0 C2.76429679 0.00538039 5.52843261 0.00001548 8.29272461 -0.00634766 C10.07723017 -0.0056871 11.86173563 -0.00440641 13.64624023 -0.00244141 C14.45896896 -0.00446564 15.27169769 -0.00648987 16.10905457 -0.00857544 C26.68592419 0.03408944 36.37200759 1.88957522 46.54467773 4.66943359 C50.03664899 5.6147349 53.51398474 6.47350277 57.07202148 7.13037109 C57.07202148 7.79037109 57.07202148 8.45037109 57.07202148 9.13037109 C51.61578951 9.30965582 47.4059088 8.85134913 42.13452148 7.25537109 C31.0115334 4.18453275 19.54531699 3.72819018 8.07202148 3.13037109 C6.76749023 3.05689453 5.46295898 2.98341797 4.11889648 2.90771484 C-12.55064055 2.46190164 -30.33737675 4.43902733 -46.45922852 8.67724609 C-49.01411365 9.14618071 -50.49895042 8.97823939 -52.92797852 8.13037109 C-52.92797852 7.80037109 -52.92797852 7.47037109 -52.92797852 7.13037109 C-52.33782959 7.01967285 -51.74768066 6.90897461 -51.13964844 6.79492188 C-48.46352906 6.28882117 -45.78954149 5.7722222 -43.11547852 5.25537109 C-42.18670898 5.08134766 -41.25793945 4.90732422 -40.30102539 4.72802734 C-39.40834961 4.55400391 -38.51567383 4.37998047 -37.59594727 4.20068359 C-36.77376709 4.0435791 -35.95158691 3.88647461 -35.10449219 3.72460938 C-32.66114649 3.18068121 -32.66114649 3.18068121 -29.92797852 1.13037109 C-20.22848305 -0.68348753 -9.83721863 -0.02280179 0 0 Z " fill="#EEB262" transform="translate(409.927978515625,390.86962890625)"/>
<path d="M0 0 C0.33 0 0.66 0 1 0 C1 73.59 1 147.18 1 223 C0.67 223 0.34 223 0 223 C0 149.41 0 75.82 0 0 Z " fill="#EAD092" transform="translate(236,350)"/>
<path d="M0 0 C1.33333333 0 2.66666667 0 4 0 C4 19.47 4 38.94 4 59 C5.485 58.505 5.485 58.505 7 58 C9.33183607 57.32811503 11.66501142 56.66084583 14 56 C14.33 56.66 14.66 57.32 15 58 C12.525 58.495 12.525 58.495 10 59 C10 59.66 10 60.32 10 61 C3.375 65 3.375 65 0 65 C0 43.55 0 22.1 0 0 Z " fill="#ECB466" transform="translate(326,350)"/>
<path d="M0 0 C3 1 3 1 4 2.9375 C4.33 3.618125 4.66 4.29875 5 5 C5.99 5.66 6.98 6.32 8 7 C9 8.66666667 10 10.33333333 11 12 C14.70005491 17.05265659 14.70005491 17.05265659 20 20 C20.6875 22.0625 20.6875 22.0625 21 24 C21.89912109 24.14308594 21.89912109 24.14308594 22.81640625 24.2890625 C25.47754451 25.15547961 26.25883036 26.17087422 27.9375 28.375 C30.39160896 31.39968929 32.5829366 33.08311077 36 35 C40.28439132 38.37408184 44.20537043 42.09038166 48 46 C47.484375 45.731875 46.96875 45.46375 46.4375 45.1875 C43.87085712 43.8926039 43.87085712 43.8926039 40.5625 42.6875 C36.79436131 40.9025922 34.81099006 39.03291033 32 36 C31.175 35.34 30.35 34.68 29.5 34 C26.7977018 31.83816144 24.44514903 29.44514903 22 27 C21.01 26.34 20.02 25.68 19 25 C19 24.34 19 23.68 19 23 C18.01 22.67 17.02 22.34 16 22 C14.62131719 20.37064759 13.28725907 18.70250393 12 17 C11.34 16.34 10.68 15.68 10 15 C8.73903389 13.27293421 7.5296128 11.51476716 6.31640625 9.75390625 C5.03881033 7.95982313 5.03881033 7.95982313 3.4140625 6.4453125 C1.54374751 4.53366458 0.87756951 2.49769783 0 0 Z " fill="#E6C08C" transform="translate(271,666)"/>
<path d="M0 0 C0.33 0 0.66 0 1 0 C1.01458252 0.87398437 1.02916504 1.74796875 1.04418945 2.6484375 C1.38347451 20.94825056 2.22843922 38.87602399 5 57 C5.21401589 58.45305523 5.42759748 59.90617454 5.640625 61.359375 C6.07385457 64.24344615 6.52237626 67.12301934 7 70 C6.34 69.67 5.68 69.34 5 69 C4.31396484 66.86694336 4.31396484 66.86694336 3.7109375 64.08984375 C3.38222656 62.60581055 3.38222656 62.60581055 3.046875 61.09179688 C2.82515625 60.05087891 2.6034375 59.00996094 2.375 57.9375 C2.14554688 56.89271484 1.91609375 55.84792969 1.6796875 54.77148438 C1.11224664 52.18253544 0.55272525 49.59212352 0 47 C-0.33 47 -0.66 47 -1 47 C-1.06975957 36.34131874 -0.86313961 25.71418891 -0.5 15.0625 C-0.45159923 13.58920004 -0.4034212 12.11589274 -0.35546875 10.64257812 C-0.23953183 7.0949643 -0.12063345 3.5474576 0 0 Z " fill="#EAB164" transform="translate(240,548)"/>
<path d="M0 0 C12.49831859 -0.19032972 23.43715176 1.25015236 35.47265625 4.5390625 C38.96462751 5.48436381 42.44196326 6.34313168 46 7 C46 7.66 46 8.32 46 9 C40.4380346 9.18417104 36.0230046 8.67537029 30.625 7.125 C23.76460187 5.23715663 17.03383724 4.28028605 9.93994141 3.77197266 C5.76753364 3.42247612 3.05695104 2.96846035 0 0 Z " fill="#F0B974" transform="translate(421,391)"/>
<path d="M0 0 C0.33 0 0.66 0 1 0 C1.08636719 0.94359375 1.17273438 1.8871875 1.26171875 2.859375 C2.13255515 10.81674249 3.5504562 17.36961862 6.9765625 24.70703125 C8 27 8 27 8 29 C8.66 29.33 9.32 29.66 10 30 C11.2890625 31.77734375 11.2890625 31.77734375 12.625 33.9375 C13.07101562 34.64777344 13.51703125 35.35804688 13.9765625 36.08984375 C15 38 15 38 15 40 C15.66 40 16.32 40 17 40 C18.5078125 41.4609375 18.5078125 41.4609375 20.125 43.375 C20.66382813 44.00148438 21.20265625 44.62796875 21.7578125 45.2734375 C23 47 23 47 23 49 C24.485 49.495 24.485 49.495 26 50 C25.67 50.66 25.34 51.32 25 52 C21.30379783 50.05463044 19.74666289 48.74284906 18 45 C16.515 44.505 16.515 44.505 15 44 C13.8125 41.4375 13.8125 41.4375 13 39 C12.34 39 11.68 39 11 39 C10.67 37.35 10.34 35.7 10 34 C9.34 34 8.68 34 8 34 C7.01 30.7 6.02 27.4 5 24 C4.34 24 3.68 24 3 24 C-1.77676538 8.43963554 -1.77676538 8.43963554 0 0 Z " fill="#95B3B5" transform="translate(589,576)"/>
<path d="M0 0 C0.33 0 0.66 0 1 0 C1.01981934 0.91998779 1.03963867 1.83997559 1.06005859 2.7878418 C1.4549578 20.26485909 1.94263017 37.62221603 4 55 C1.65176736 51.47765104 1.45145613 49.11393342 0.9375 44.9375 C0.49024046 40.31436797 0.49024046 40.31436797 -1 36 C-2.13744069 29.70897 -2.12927818 23.24930806 -2.1875 16.875 C-2.20047119 16.12347656 -2.21344238 15.37195313 -2.22680664 14.59765625 C-2.23531377 9.41624474 -1.42921914 4.98249517 0 0 Z " fill="#689B9E" transform="translate(499,550)"/>
<path d="M0 0 C4.22963303 2.27749471 7.87969203 4.25563044 11 8 C11 8.66 11 9.32 11 10 C11.99 10.33 12.98 10.66 14 11 C14 11.66 14 12.32 14 13 C14.99 13.33 15.98 13.66 17 14 C20 17.44444444 20 17.44444444 20 20 C20.99 20.33 21.98 20.66 23 21 C23 21.66 23 22.32 23 23 C23.99 23.33 24.98 23.66 26 24 C27.31640625 25.55859375 27.31640625 25.55859375 28.5625 27.4375 C29.96589896 29.53166854 31.20558012 31.20558012 33 33 C32.67 33.99 32.34 34.98 32 36 C28.62985672 33.79197509 26.83752377 31.58317135 25 28 C25 27.34 25 26.68 25 26 C24.34 26 23.68 26 23 26 C19.59353652 22.94291739 17.32148434 19.90431458 15 16 C14.01 15.34 13.02 14.68 12 14 C12 13.34 12 12.68 12 12 C11.01 11.67 10.02 11.34 9 11 C7.29006566 9.3777546 5.62652316 7.70586575 4 6 C3.236875 5.278125 2.47375 4.55625 1.6875 3.8125 C0 2 0 2 0 0 Z " fill="#86ACB1" transform="translate(782,430)"/>
<path d="M0 0 C-0.33 0.66 -0.66 1.32 -1 2 C-14.99444814 5.9000921 -29.60940622 5.12485165 -44 5 C-44.33 4.34 -44.66 3.68 -45 3 C-36.42 3 -27.84 3 -19 3 C-19 2.34 -19 1.68 -19 1 C-12.63849395 0.34513908 -6.39628979 -0.12068471 0 0 Z " fill="#90B6BB" transform="translate(704,735)"/>
<path d="M0 0 C0.84755859 0.00322266 1.69511719 0.00644531 2.56835938 0.00976562 C3.44943359 0.01814453 4.33050781 0.02652344 5.23828125 0.03515625 C6.57729492 0.04192383 6.57729492 0.04192383 7.94335938 0.04882812 C10.14590112 0.06060642 12.34830724 0.07705461 14.55078125 0.09765625 C11.61496716 3.03347034 8.26391805 2.83616393 4.30078125 3.22265625 C3.05856812 3.34785645 3.05856812 3.34785645 1.79125977 3.47558594 C-4.97414398 4.09170857 -11.72004849 4.31068411 -18.51171875 4.34765625 C-19.46916992 4.35684082 -20.42662109 4.36602539 -21.41308594 4.37548828 C-22.30286133 4.37145996 -23.19263672 4.36743164 -24.109375 4.36328125 C-24.89965088 4.36102539 -25.68992676 4.35876953 -26.50415039 4.35644531 C-28.44921875 4.09765625 -28.44921875 4.09765625 -30.44921875 2.09765625 C-29.76819092 2.0726001 -29.08716309 2.04754395 -28.38549805 2.02172852 C-25.3023812 1.90574673 -22.21956829 1.78303009 -19.13671875 1.66015625 C-18.06486328 1.62083984 -16.99300781 1.58152344 -15.88867188 1.54101562 C-14.86064453 1.49912109 -13.83261719 1.45722656 -12.7734375 1.4140625 C-11.82557373 1.37740479 -10.87770996 1.34074707 -9.90112305 1.30297852 C-6.43801275 1.01297794 -3.53334393 -0.02371372 0 0 Z " fill="#E7BF8B" transform="translate(430.44921875,735.90234375)"/>
<path d="M0 0 C0.66 0 1.32 0 2 0 C0.8905928 3.48670834 -0.26337666 6.77484237 -2 10 C-2.66 10 -3.32 10 -4 10 C-4.66 11.65 -5.32 13.3 -6 15 C-6.66 15 -7.32 15 -8 15 C-8.28875 15.763125 -8.5775 16.52625 -8.875 17.3125 C-10 20 -10 20 -12 23 C-12.66 23 -13.32 23 -14 23 C-14.226875 23.721875 -14.45375 24.44375 -14.6875 25.1875 C-16.26766076 28.57355877 -18.27191325 30.46677659 -21 33 C-21.721875 33.763125 -22.44375 34.52625 -23.1875 35.3125 C-25 37 -25 37 -27 37 C-26.34 35.68 -25.68 34.36 -25 33 C-24.34 33 -23.68 33 -23 33 C-22.61521484 32.13568359 -22.61521484 32.13568359 -22.22265625 31.25390625 C-20.47115417 28.02509889 -18.03851686 25.58849747 -15.55859375 22.90234375 C-13.7955971 20.98116107 -13.7955971 20.98116107 -13 18 C-12.0206121 16.97980427 -11.02104551 15.97850195 -10 15 C-9.67 14.34 -9.34 13.68 -9 13 C-8.34 13 -7.68 13 -7 13 C-6.566875 11.88625 -6.566875 11.88625 -6.125 10.75 C-5.17697356 8.43260203 -4.15154089 6.22082885 -3 4 C-2.34 4 -1.68 4 -1 4 C-0.67 2.68 -0.34 1.36 0 0 Z " fill="#83A9AF" transform="translate(820,653)"/>
<path d="M0 0 C29.04 0 58.08 0 88 0 C88 0.33 88 0.66 88 1 C58.96 1 29.92 1 0 1 C0 0.67 0 0.34 0 0 Z " fill="#EAD092" transform="translate(239,347)"/>
<path d="M0 0 C0.66 0 1.32 0 2 0 C3.03295226 6.13745804 3.28420108 12.22329039 3.5 18.4375 C3.72941875 25.01841919 4.0671948 31.478137 5 38 C4.34 38 3.68 38 3 38 C-0.37806401 29.92279183 -0.35426456 22.61353329 -0.1875 13.9375 C-0.17241956 12.58139514 -0.15873712 11.22527398 -0.14648438 9.86914062 C-0.11135836 6.57900398 -0.0621664 3.28971817 0 0 Z M1 7 C1 11.62 1 16.24 1 21 C1.33 21 1.66 21 2 21 C2 16.38 2 11.76 2 7 C1.67 7 1.34 7 1 7 Z " fill="#DAB075" transform="translate(327,551)"/>
<path d="M0 0 C-0.99 0.33 -1.98 0.66 -3 1 C-3 1.66 -3 2.32 -3 3 C-6.0253967 5.79267387 -9.13864015 6.7391478 -13 8 C-14.67334039 8.98879205 -16.34151823 9.98648336 -18 11 C-18.66 11 -19.32 11 -20 11 C-20 11.66 -20 12.32 -20 13 C-21.29205831 14.05278825 -22.63634717 15.04175747 -24 16 C-24.845625 16.70125 -25.69125 17.4025 -26.5625 18.125 C-29 20 -29 20 -32 21 C-30.85884848 17.57654544 -29.3138441 16.45552997 -26.546875 14.26171875 C-24.84925105 12.92677758 -24.84925105 12.92677758 -22.9375 10.875 C-20.7690955 8.77654403 -18.63428794 7.47030024 -16 6 C-15.41605469 5.64550781 -14.83210938 5.29101562 -14.23046875 4.92578125 C-9.35416667 2 -9.35416667 2 -6 2 C-6 1.34 -6 0.68 -6 0 C-3 -1 -3 -1 0 0 Z " fill="#D8B27C" transform="translate(383,486)"/>
<path d="M0 0 C4.59648634 0.71820099 8.69161552 2.31828859 13 4 C21.22367383 7.15295005 29.4212866 9.97230411 38 12 C38 12.66 38 13.32 38 14 C35.89455987 13.71767279 33.79066411 13.4238102 31.6875 13.125 C30.51574219 12.96257813 29.34398437 12.80015625 28.13671875 12.6328125 C25 12 25 12 22 10 C20.39151141 9.43021336 18.76378203 8.91319509 17.125 8.4375 C16.28195312 8.18871094 15.43890625 7.93992187 14.5703125 7.68359375 C11.98665137 6.95387423 11.98665137 6.95387423 9.2421875 6.53515625 C8.50226563 6.35855469 7.76234375 6.18195312 7 6 C6.67 5.34 6.34 4.68 6 4 C4.02477154 2.95191959 2.02518491 1.9479589 0 1 C0 0.67 0 0.34 0 0 Z " fill="#DEB783" transform="translate(335,721)"/>
<path d="M0 0 C1.32 0.33 2.64 0.66 4 1 C4 1.66 4 2.32 4 3 C4.639375 3.0825 5.27875 3.165 5.9375 3.25 C10.20541517 4.29520372 14.03107667 6.14091826 18 8 C18 8.66 18 9.32 18 10 C18.68707031 10.13277344 19.37414062 10.26554688 20.08203125 10.40234375 C20.98308594 10.57894531 21.88414062 10.75554688 22.8125 10.9375 C23.70582031 11.11152344 24.59914063 11.28554688 25.51953125 11.46484375 C28 12 28 12 31 13 C31 13.66 31 14.32 31 15 C32.485 15.495 32.485 15.495 34 16 C30.23375329 17.25541557 28.62811066 16.37061958 25 15 C25 14.34 25 13.68 25 13 C23.35 13.33 21.7 13.66 20 14 C19.67 13.34 19.34 12.68 19 12 C16.94953741 10.93422284 14.85859982 9.94556046 12.75 9 C11.61046875 8.484375 10.4709375 7.96875 9.296875 7.4375 C7.2642133 6.55122096 5.21038482 5.70993728 3.12890625 4.9453125 C2.42636719 4.63335938 1.72382812 4.32140625 1 4 C0.1875 1.875 0.1875 1.875 0 0 Z " fill="#7EA3A7" transform="translate(581,713)"/>
<path d="M0 0 C0.66 0 1.32 0 2 0 C2.8394882 2.10171867 3.67139656 4.20646625 4.5 6.3125 C5.19609375 8.07013672 5.19609375 8.07013672 5.90625 9.86328125 C7 13 7 13 7 16 C7.66 16 8.32 16 9 16 C9.83739781 18.1234016 10.66980283 20.2487728 11.5 22.375 C11.9640625 23.55835938 12.428125 24.74171875 12.90625 25.9609375 C14 29 14 29 14 31 C13.34 31 12.68 31 12 31 C8.81282473 26.84778362 7.04626484 22.86722982 5.375 17.875 C3.8480528 13.25029315 3.8480528 13.25029315 1.890625 8.8046875 C0.50686784 6.00075852 0.35511724 3.07768273 0 0 Z " fill="#E2B980" transform="translate(247,619)"/>
<path d="M0 0 C6.11485027 -0.09706112 11.93303301 0.22959149 18 1 C18 1.66 18 2.32 18 3 C21.465 2.505 21.465 2.505 25 2 C25 2.66 25 3.32 25 4 C26.65 4 28.3 4 30 4 C30.33 4.66 30.66 5.32 31 6 C20.64375195 5.21449616 10.32502414 4.11242415 0 3 C0 2.01 0 1.02 0 0 Z " fill="#6EA3AF" transform="translate(683,391)"/>
<path d="M0 0 C0.66 0.33 1.32 0.66 2 1 C3.10846863 7.85298532 3.1221028 14.63482107 3.0625 21.5625 C3.05798828 22.57119141 3.05347656 23.57988281 3.04882812 24.61914062 C3.03716769 27.07949147 3.02080378 29.53971239 3 32 C2.67 32 2.34 32 2 32 C0.38308557 24.96408233 -0.40774655 18.14496611 -0.6875 10.9375 C-0.73455078 9.98939453 -0.78160156 9.04128906 -0.83007812 8.06445312 C-1.05472788 2.92697107 -1.05472788 2.92697107 -1 1 C-0.67 0.67 -0.34 0.34 0 0 Z " fill="#50919E" transform="translate(843,537)"/>
<path d="M0 0 C-0.1171875 1.84375 -0.1171875 1.84375 -1 4 C-3.6953125 5.34375 -3.6953125 5.34375 -7.125 6.5 C-12.14173984 8.28421922 -16.49051017 10.19409522 -21 13 C-21.99 13.495 -21.99 13.495 -23 14 C-23.66 13.67 -24.32 13.34 -25 13 C-25 13.66 -25 14.32 -25 15 C-26.65 15.33 -28.3 15.66 -30 16 C-30 15.34 -30 14.68 -30 14 C-29.34 14 -28.68 14 -28 14 C-28 13.34 -28 12.68 -28 12 C-26.02 11.67 -24.04 11.34 -22 11 C-22 10.34 -22 9.68 -22 9 C-21.02417969 8.67386719 -20.04835938 8.34773437 -19.04296875 8.01171875 C-17.75765489 7.57077166 -16.47250722 7.12933992 -15.1875 6.6875 C-14.54490234 6.47416016 -13.90230469 6.26082031 -13.24023438 6.04101562 C-9.76882491 4.83591493 -7.43673238 3.74420649 -5 1 C-2 0 -2 0 0 0 Z " fill="#80A9AD" transform="translate(763,713)"/>
<path d="M0 0 C0 0.99 0 1.98 0 3 C-3.04127817 3.33725065 -6.08294191 3.66992332 -9.125 4 C-9.9809375 4.09539062 -10.836875 4.19078125 -11.71875 4.2890625 C-16.17022474 4.76845209 -20.51441925 5.11765458 -25 5 C-25 4.01 -25 3.02 -25 2 C-22.03 2.495 -22.03 2.495 -19 3 C-19 2.34 -19 1.68 -19 1 C-12.61773055 0.17648136 -6.43255401 -0.12086218 0 0 Z " fill="#77A8B1" transform="translate(661,391)"/>
<path d="M0 0 C4.455 0.99 4.455 0.99 9 2 C9 2.66 9 3.32 9 4 C9.928125 4.12375 10.85625 4.2475 11.8125 4.375 C15 5 15 5 18 7 C18 7.66 18 8.32 18 9 C18.721875 9.2475 19.44375 9.495 20.1875 9.75 C23.24713266 11.10983674 25.4673738 12.82917754 28 15 C27.67 15.66 27.34 16.32 27 17 C26.56171875 16.63648438 26.1234375 16.27296875 25.671875 15.8984375 C19.88482971 11.3111455 13.66668566 8.13334226 7 5 C7 4.34 7 3.68 7 3 C4.69 2.67 2.38 2.34 0 2 C0 1.34 0 0.68 0 0 Z " fill="#E7BE87" transform="translate(439,484)"/>
<path d="M0 0 C7.55607786 1.10355089 14.74822618 2.59343789 22 5 C22 5.66 22 6.32 22 7 C18.625 7.625 18.625 7.625 15 8 C14.34 7.34 13.68 6.68 13 6 C10.80295489 5.32348793 10.80295489 5.32348793 8.375 4.875 C7.55773437 4.70742188 6.74046875 4.53984375 5.8984375 4.3671875 C5.27195312 4.24601563 4.64546875 4.12484375 4 4 C4 3.34 4 2.68 4 2 C2.68 2 1.36 2 0 2 C0 1.34 0 0.68 0 0 Z " fill="#80A9AC" transform="translate(616,729)"/>
<path d="M0 0 C-0.33 0.66 -0.66 1.32 -1 2 C-2.99970206 2.56085623 -5.0272343 3.0239041 -7.0625 3.4375 C-11.04614993 4.29457507 -14.83494988 5.18564836 -18.625 6.6875 C-22 8 -22 8 -25 8 C-25 8.66 -25 9.32 -25 10 C-25.99 10 -26.98 10 -28 10 C-28 9.01 -28 8.02 -28 7 C-23.57508841 5.20611692 -19.16950159 3.75020396 -14.5625 2.5 C-13.14130859 2.11328125 -13.14130859 2.11328125 -11.69140625 1.71875 C-10.80324219 1.4815625 -9.91507813 1.244375 -9 1 C-7.92298828 0.70802734 -7.92298828 0.70802734 -6.82421875 0.41015625 C-4.52203704 -0.10746491 -2.35113138 -0.0653092 0 0 Z " fill="#91B3B4" transform="translate(635,395)"/>
<path d="M0 0 C1.01984985 0.04543945 1.01984985 0.04543945 2.06030273 0.09179688 C5.18594899 0.22990003 8.31171957 0.3649692 11.4375 0.5 C13.04141602 0.57154297 13.04141602 0.57154297 14.67773438 0.64453125 C20.79229397 0.90631668 26.87990886 1.05148342 33 1 C33 1.66 33 2.32 33 3 C28.43755363 3.05813173 23.87520276 3.09364122 19.3125 3.125 C18.01892578 3.14175781 16.72535156 3.15851562 15.39257812 3.17578125 C14.14541016 3.18222656 12.89824219 3.18867187 11.61328125 3.1953125 C10.46641846 3.20578613 9.31955566 3.21625977 8.13793945 3.22705078 C5.00808345 3.00058489 2.81920095 2.33456032 0 1 C0 0.67 0 0.34 0 0 Z " fill="#F1BD7D" transform="translate(393,648)"/>
<path d="M0 0 C0.66 0.66 1.32 1.32 2 2 C-17.17395105 11.06730769 -17.17395105 11.06730769 -23 9 C-20.26828748 6.26828748 -17.71212739 6.22841323 -13.99609375 5.5625 C-13.33738281 5.376875 -12.67867188 5.19125 -12 5 C-11.67 4.34 -11.34 3.68 -11 3 C-9.34305915 2.62127066 -7.67343448 2.29749946 -6 2 C-3.99255385 1.35610218 -1.99054876 0.69437747 0 0 Z " fill="#EAC38E" transform="translate(450,640)"/>
<path d="M0 0 C0.66 0.33 1.32 0.66 2 1 C0.55084819 4.79999807 -1.09123017 5.85909717 -4.75 7.5 C-7.83204357 8.93858392 -10.71277522 10.36006284 -13.5 12.3125 C-16 14 -16 14 -18 14 C-17.67 13.01 -17.34 12.02 -17 11 C-16.34 11 -15.68 11 -15 11 C-15 10.34 -15 9.68 -15 9 C-13.43880578 8.20576139 -11.87598036 7.41472877 -10.3125 6.625 C-9.00732422 5.96371094 -9.00732422 5.96371094 -7.67578125 5.2890625 C-5.15227201 4.07335732 -2.61262468 3.00739042 0 2 C0 1.34 0 0.68 0 0 Z " fill="#91B3B4" transform="translate(590,409)"/>
<path d="M0 0 C2.53693056 1.14571058 2.80921833 2.39278032 3.9375 4.875 C4.9275 5.535 5.9175 6.195 6.9375 6.875 C6.9375 7.865 6.9375 8.855 6.9375 9.875 C6.2775 9.875 5.6175 9.875 4.9375 9.875 C4.9375 9.215 4.9375 8.555 4.9375 7.875 C4.2775 7.875 3.6175 7.875 2.9375 7.875 C2.9375 7.215 2.9375 6.555 2.9375 5.875 C2.2775 5.875 1.6175 5.875 0.9375 5.875 C-0.43560707 4.58266393 -1.77284824 3.25062854 -3.0625 1.875 C-3.0625 2.535 -3.0625 3.195 -3.0625 3.875 C-3.7225 3.875 -4.3825 3.875 -5.0625 3.875 C-5.330625 4.473125 -5.59875 5.07125 -5.875 5.6875 C-7.04743467 7.84724808 -8.25619282 9.23290256 -10.0625 10.875 C-10.7225 10.545 -11.3825 10.215 -12.0625 9.875 C-10.6875 7.875 -10.6875 7.875 -9.0625 5.875 C-8.4025 5.875 -7.7425 5.875 -7.0625 5.875 C-6.794375 5.25625 -6.52625 4.6375 -6.25 4 C-4.71208565 1.24794274 -3.2778363 -0.19865675 0 0 Z " fill="#8AB2B8" transform="translate(544.0625,681.125)"/>
<path d="M0 0 C0 0.66 0 1.32 0 2 C-1.3984375 3.375 -1.3984375 3.375 -3.375 5 C-8.54143497 9.37943323 -13.25777524 14.17031617 -18 19 C-18.33 18.01 -18.66 17.02 -19 16 C-14.375 11.125 -14.375 11.125 -11 10 C-10.31120677 8.67796138 -9.64698887 7.34299204 -9 6 C-7.34375 4.296875 -7.34375 4.296875 -5.5 2.75 C-4.8915625 2.22921875 -4.283125 1.7084375 -3.65625 1.171875 C-2 0 -2 0 0 0 Z " fill="#81AAAF" transform="translate(562,430)"/>
<path d="M0 0 C1.32930661 0.37619377 2.65479711 0.76608062 3.9765625 1.16796875 C10.23413272 2.9831514 10.23413272 2.9831514 16.6015625 4.35546875 C16.6015625 5.01546875 16.6015625 5.67546875 16.6015625 6.35546875 C8.29552806 6.81691511 1.19836605 4.64741696 -6.3984375 1.35546875 C-3.3984375 -0.64453125 -3.3984375 -0.64453125 0 0 Z " fill="#E1B57A" transform="translate(450.3984375,393.64453125)"/>
<path d="M0 0 C3.57294032 1.32002058 6.63953492 2.89521388 9.8125 5 C10.60269531 5.515625 11.39289062 6.03125 12.20703125 6.5625 C12.79871094 7.036875 13.39039063 7.51125 14 8 C14 8.66 14 9.32 14 10 C14.598125 10.2475 15.19625 10.495 15.8125 10.75 C18.28647521 12.16370012 19.43370255 13.65055383 21 16 C16.19457147 15.2607033 12.2561509 12.62834376 9.3125 8.8125 C8.879375 8.214375 8.44625 7.61625 8 7 C7.01 6.67 6.02 6.34 5 6 C3.97980427 5.0206121 2.97850195 4.02104551 2 3 C1.34 2.67 0.68 2.34 0 2 C0 1.34 0 0.68 0 0 Z " fill="#E6C495" transform="translate(509,420)"/>
<path d="M0 0 C0.66 0 1.32 0 2 0 C0.8905928 3.48670834 -0.26337666 6.77484237 -2 10 C-2.66 10 -3.32 10 -4 10 C-4.66 11.65 -5.32 13.3 -6 15 C-6.66 15 -7.32 15 -8 15 C-8.99 17.475 -8.99 17.475 -10 20 C-11 17 -11 17 -10.0625 14.8125 C-9.5365625 13.9153125 -9.5365625 13.9153125 -9 13 C-8.34 13 -7.68 13 -7 13 C-6.71125 12.2575 -6.4225 11.515 -6.125 10.75 C-5.17697356 8.43260203 -4.15154089 6.22082885 -3 4 C-2.34 4 -1.68 4 -1 4 C-0.67 2.68 -0.34 1.36 0 0 Z " fill="#81A9B2" transform="translate(820,653)"/>
<path d="M0 0 C1.54771359 0.4376731 3.07509123 0.94679781 4.59375 1.4765625 C2.31658381 2.88029508 1.06639955 3.5279735 -1.6328125 3.234375 C-2.82003906 2.92113281 -2.82003906 2.92113281 -4.03125 2.6015625 C-9.22812866 1.39514424 -14.09346901 1.27309429 -19.40625 1.4765625 C-14.11182228 -3.50870155 -6.59544852 -1.43472419 0 0 Z " fill="#E7BA7C" transform="translate(390.40625,735.5234375)"/>
<path d="M0 0 C0.66 0 1.32 0 2 0 C2.19335938 0.73605469 2.38671875 1.47210937 2.5859375 2.23046875 C2.84632813 3.20628906 3.10671875 4.18210937 3.375 5.1875 C3.75785156 6.63189453 3.75785156 6.63189453 4.1484375 8.10546875 C4.94035832 10.99050555 4.94035832 10.99050555 6.09375 13.625 C7.3063927 16.80296019 7.13208242 19.6318984 7 23 C6.34 22.67 5.68 22.34 5 22 C4.47265625 20.21484375 4.47265625 20.21484375 4.0625 17.9375 C3.14649027 13.37926109 1.71287235 9.31941724 0 5 C-0.33 4.01 -0.66 3.02 -1 2 C-0.67 1.34 -0.34 0.68 0 0 Z " fill="#D9B27D" transform="translate(491,532)"/>
<path d="M0 0 C1.67542976 0.28604898 3.34385343 0.61781233 5 1 C5 1.66 5 2.32 5 3 C2.14600317 3.48019629 -0.70818766 3.95918577 -3.5625 4.4375 C-4.76229492 4.63956055 -4.76229492 4.63956055 -5.98632812 4.84570312 C-10.65038214 5.62621829 -15.31561302 6.35235992 -20 7 C-20.33 6.34 -20.66 5.68 -21 5 C-20.09906616 4.82609741 -20.09906616 4.82609741 -19.17993164 4.64868164 C-16.47333141 4.12393529 -13.76791952 3.59329853 -11.0625 3.0625 C-10.11697266 2.88009766 -9.17144531 2.69769531 -8.19726562 2.50976562 C-7.29814453 2.33251953 -6.39902344 2.15527344 -5.47265625 1.97265625 C-4.22367554 1.72914429 -4.22367554 1.72914429 -2.94946289 1.48071289 C-1.00778088 1.18019737 -1.00778088 1.18019737 0 0 Z " fill="#E4BD88" transform="translate(378,393)"/>
<path d="M0 0 C1.65 0 3.3 0 5 0 C5.33 0.66 5.66 1.32 6 2 C8.11846285 2.68729254 8.11846285 2.68729254 10.5625 3.125 C11.80193359 3.37636719 11.80193359 3.37636719 13.06640625 3.6328125 C13.70449219 3.75398437 14.34257813 3.87515625 15 4 C15 4.99 15 5.98 15 7 C12.03 6.67 9.06 6.34 6 6 C6 5.34 6 4.68 6 4 C3.69 3.67 1.38 3.34 -1 3 C-0.67 2.01 -0.34 1.02 0 0 Z " fill="#74A1A8" transform="translate(642,643)"/>
<path d="M0 0 C2.475 0.99 2.475 0.99 5 2 C5 2.66 5 3.32 5 4 C5.99 4.33 6.98 4.66 8 5 C9.31640625 6.55859375 9.31640625 6.55859375 10.5625 8.4375 C11.96589896 10.53166854 13.20558012 12.20558012 15 14 C14.67 14.99 14.34 15.98 14 17 C10.62985672 14.79197509 8.83752377 12.58317135 7 9 C7 8.34 7 7.68 7 7 C6.34 7 5.68 7 5 7 C2.375 4.625 2.375 4.625 0 2 C0 1.34 0 0.68 0 0 Z " fill="#74A0AA" transform="translate(800,449)"/>
<path d="M0 0 C15.84 0.495 15.84 0.495 32 1 C32 1.33 32 1.66 32 2 C16.16 2.495 16.16 2.495 0 3 C0 2.01 0 1.02 0 0 Z " fill="#ED992C" transform="translate(391,736)"/>
<path d="M0 0 C-6.87844553 3.27999949 -13.25686365 6 -21 6 C-21 5.34 -21 4.68 -21 4 C-18.93847611 3.35105763 -16.87573742 2.7059736 -14.8125 2.0625 C-13.66394531 1.70285156 -12.51539063 1.34320312 -11.33203125 0.97265625 C-3.735 -1.245 -3.735 -1.245 0 0 Z " fill="#8DAFB4" transform="translate(732,729)"/>
<path d="M0 0 C2.39824947 2.39824947 2.31436204 3.27335218 2.5625 6.5625 C2.58449303 9.58047788 2.58449303 9.58047788 4 12 C4.22670908 13.55753051 4.39435092 15.12377359 4.53515625 16.69140625 C4.62216797 17.63564453 4.70917969 18.57988281 4.79882812 19.55273438 C4.88583984 20.54595703 4.97285156 21.53917969 5.0625 22.5625 C5.15337891 23.55958984 5.24425781 24.55667969 5.33789062 25.58398438 C5.56258814 28.05565702 5.78310351 30.52763256 6 33 C3.65176736 29.47765104 3.45145613 27.11393342 2.9375 22.9375 C2.49024046 18.31436797 2.49024046 18.31436797 1 14 C0.76970044 11.62876754 0.58880058 9.25258057 0.4375 6.875 C0.35371094 5.59367188 0.26992188 4.31234375 0.18359375 2.9921875 C0.12300781 2.00476563 0.06242187 1.01734375 0 0 Z " fill="#978D59" transform="translate(497,572)"/>
<path d="M0 0 C5.1107659 0.54758206 8.59735297 4.45557601 12 8 C12.886875 8.886875 13.77375 9.77375 14.6875 10.6875 C15.450625 11.450625 16.21375 12.21375 17 13 C16.484375 12.731875 15.96875 12.46375 15.4375 12.1875 C12.87085712 10.8926039 12.87085712 10.8926039 9.5625 9.6875 C5.82666812 7.91789542 3.73975102 6.05286542 1 3 C0.34 2.34 -0.32 1.68 -1 1 C-0.67 0.67 -0.34 0.34 0 0 Z " fill="#DEB985" transform="translate(302,699)"/>
<path d="M0 0 C2.52349243 3.12432397 4.27256146 6.38060496 6 10 C6.33 10 6.66 10 7 10 C7.66 13.3 8.32 16.6 9 20 C8.34 20.33 7.68 20.66 7 21 C6.38125 19.2365625 6.38125 19.2365625 5.75 17.4375 C4.67860736 14.53089893 3.45960351 11.99512551 1.8125 9.375 C-0.08647716 5.83897356 -0.38410689 3.93709562 0 0 Z " fill="#8FB3B5" transform="translate(827,486)"/>
<path d="M0 0 C0 0.66 0 1.32 0 2 C-12.72727273 7 -12.72727273 7 -19 7 C-19 6.34 -19 5.68 -19 5 C-16.36 4.67 -13.72 4.34 -11 4 C-11 3.34 -11 2.68 -11 2 C-3.375 0 -3.375 0 0 0 Z " fill="#DCB685" transform="translate(472,728)"/>
<path d="M0 0 C0.66 0.33 1.32 0.66 2 1 C1 4 1 4 -1.6875 5.53515625 C-3.3271875 6.29119141 -3.3271875 6.29119141 -5 7.0625 C-9.25701594 8.71765951 -9.25701594 8.71765951 -12 12 C-12.99 11.67 -13.98 11.34 -15 11 C-11.97912705 7.63056479 -9.03607984 5.97685543 -5 4 C-3.30140333 2.70758949 -1.62390477 1.38509525 0 0 Z " fill="#E8BD82" transform="translate(467,629)"/>
<path d="M0 0 C0.66 0 1.32 0 2 0 C5.77895138 3.90491643 8.47896485 8.78368926 10 14 C9.60546875 16.27734375 9.60546875 16.27734375 9 18 C7.55211346 15.41448832 6.80290115 13.22474452 6.0625 10.3125 C5.711875 9.219375 5.36125 8.12625 5 7 C4.01 6.67 3.02 6.34 2 6 C0.8125 2.9375 0.8125 2.9375 0 0 Z " fill="#E3BD88" transform="translate(481,515)"/>
<path d="M0 0 C4.25033735 2.12516868 6.75488065 4.83328081 9.66796875 8.4765625 C10.94364001 10.12972374 10.94364001 10.12972374 13 11 C12.67 11.66 12.34 12.32 12 13 C7.98527758 10.88111872 5.74969226 8.57459994 3 5 C2.01 4.34 1.02 3.68 0 3 C0 2.01 0 1.02 0 0 Z " fill="#E5BD87" transform="translate(530,436)"/>
<path d="M0 0 C1.60463449 0.31008884 3.20869231 0.62316287 4.8125 0.9375 C5.70582031 1.11152344 6.59914063 1.28554688 7.51953125 1.46484375 C10 2 10 2 13 3 C13 3.66 13 4.32 13 5 C13.99 5.33 14.98 5.66 16 6 C12.23375329 7.25541557 10.62811066 6.37061958 7 5 C7 4.34 7 3.68 7 3 C5.35 3.33 3.7 3.66 2 4 C1.34 2.68 0.68 1.36 0 0 Z " fill="#8FB2B1" transform="translate(599,723)"/>
<path d="M0 0 C3.34373475 0.55728913 6.03312999 1.35173889 9 3 C9 3.66 9 4.32 9 5 C11.31 5.66 13.62 6.32 16 7 C16 7.66 16 8.32 16 9 C9.47203304 7.41316218 4.79591356 5.79591356 0 1 C0 0.67 0 0.34 0 0 Z " fill="#E3BD89" transform="translate(319,712)"/>
<path d="M0 0 C0.66 0.33 1.32 0.66 2 1 C2.484375 3.87109375 2.484375 3.87109375 2.75 7.4375 C2.84796875 8.61183594 2.9459375 9.78617188 3.046875 10.99609375 C3 14 3 14 1 16 C-0.25447333 10.95970539 -1.39277298 6.23697313 -1 1 C-0.67 0.67 -0.34 0.34 0 0 Z " fill="#91B5B7" transform="translate(843,537)"/>
<path d="M0 0 C0.66 0.33 1.32 0.66 2 1 C1.01 2.485 1.01 2.485 0 4 C-0.66 4 -1.32 4 -2 4 C-2 4.66 -2 5.32 -2 6 C-3.65071396 7.02611949 -5.31970006 8.02308143 -7 9 C-8.75149165 10.58245275 -8.75149165 10.58245275 -10 12 C-10.33 11.01 -10.66 10.02 -11 9 C-10.236875 8.401875 -9.47375 7.80375 -8.6875 7.1875 C-6.11132837 5.16659401 -6.11132837 5.16659401 -4.375 3.375 C-3 2 -3 2 0 0 Z " fill="#8BB0B3" transform="translate(790,691)"/>
<path d="M0 0 C2.475 0.99 2.475 0.99 5 2 C5 2.66 5 3.32 5 4 C5.804375 4.185625 5.804375 4.185625 6.625 4.375 C9.4638286 5.12206016 12.22223202 6.05303364 15 7 C15 7.66 15 8.32 15 9 C11.53771692 8.5532538 8.46635792 7.49558815 5.25 6.1875 C4.47140625 5.87167969 3.6928125 5.55585937 2.890625 5.23046875 C1 4 1 4 0.234375 1.86328125 C0.15703125 1.24839844 0.0796875 0.63351562 0 0 Z " fill="#8FB4B8" transform="translate(625,635)"/>
<path d="M0 0 C0.84406458 2.36546493 1.21729813 3.50952707 0.1796875 5.8515625 C-2.51425189 9.5133843 -4.40399799 11.81817091 -9 13 C-6.96970687 8.40512608 -4.63369896 5.44245164 -1 2 C-0.67 1.34 -0.34 0.68 0 0 Z " fill="#E9C18A" transform="translate(485,608)"/>
<path d="M0 0 C0.268125 0.556875 0.53625 1.11375 0.8125 1.6875 C2.00699665 4.08933398 2.00699665 4.08933398 3.625 6.625 C5 9 5 9 5 11 C5.99 11.33 6.98 11.66 8 12 C7.67 12.99 7.34 13.98 7 15 C1.42857143 9.85714286 1.42857143 9.85714286 1 6 C0.34 6 -0.32 6 -1 6 C-0.67 4.02 -0.34 2.04 0 0 Z " fill="#E6BD85" transform="translate(339,604)"/>
<path d="M0 0 C1.76462683 3.08809695 2 4.23312136 2 8 C2.66 8 3.32 8 4 8 C4.33 10.64 4.66 13.28 5 16 C4.34 16 3.68 16 3 16 C3 14.68 3 13.36 3 12 C2.34 12 1.68 12 1 12 C0.63896464 10.18885568 0.28634496 8.37603177 -0.0625 6.5625 C-0.25972656 5.55316406 -0.45695313 4.54382813 -0.66015625 3.50390625 C-0.77230469 2.67761719 -0.88445313 1.85132813 -1 1 C-0.67 0.67 -0.34 0.34 0 0 Z " fill="#84AEB4" transform="translate(836,507)"/>
<path d="M0 0 C4.72995781 1.49367089 4.72995781 1.49367089 6 3.875 C6.33 4.57625 6.66 5.2775 7 6 C8.2684375 6.99 8.2684375 6.99 9.5625 8 C12.19485661 10.15988234 12.41024015 10.81927272 13 14 C11.67823515 13.09674384 10.36784934 12.17682097 9.0625 11.25 C8.33160156 10.73953125 7.60070312 10.2290625 6.84765625 9.703125 C4.75366787 7.77293698 4.54357851 6.71789255 4 4 C2.0162233 2.71563266 2.0162233 2.71563266 0 2 C0 1.34 0 0.68 0 0 Z " fill="#E1C192" transform="translate(468,501)"/>
<path d="M0 0 C0.99 0 1.98 0 3 0 C3 0.66 3 1.32 3 2 C3.85851562 2.41765625 3.85851562 2.41765625 4.734375 2.84375 C6.96617566 3.98273792 9.10870874 5.19936383 11.25 6.5 C11.95640625 6.9228125 12.6628125 7.345625 13.390625 7.78125 C13.92171875 8.1834375 14.4528125 8.585625 15 9 C15 9.66 15 10.32 15 11 C12.0625 10.1875 12.0625 10.1875 9 9 C8.67 8.01 8.34 7.02 8 6 C7.401875 5.855625 6.80375 5.71125 6.1875 5.5625 C3.24576178 4.80605303 1.96887467 3.25014248 0 1 C0 0.67 0 0.34 0 0 Z " fill="#97B7B9" transform="translate(767,419)"/>
<path d="M0 0 C11.22 0 22.44 0 34 0 C34 0.33 34 0.66 34 1 C22.78 1 11.56 1 0 1 C0 0.67 0 0.34 0 0 Z " fill="#EAD092" transform="translate(396,389)"/>
<path d="M0 0 C0.66 0 1.32 0 2 0 C2.27263672 0.95712891 2.27263672 0.95712891 2.55078125 1.93359375 C2.80214844 2.75988281 3.05351562 3.58617187 3.3125 4.4375 C3.55613281 5.26121094 3.79976563 6.08492187 4.05078125 6.93359375 C4.36402344 7.61550781 4.67726563 8.29742188 5 9 C5.99 9.33 6.98 9.66 8 10 C9.1875 13.0625 9.1875 13.0625 10 16 C9.01 15.34 8.02 14.68 7 14 C7 13.34 7 12.68 7 12 C6.01 11.67 5.02 11.34 4 11 C2.83203125 9.2578125 2.83203125 9.2578125 1.8125 7.125 C1.46832031 6.42632813 1.12414062 5.72765625 0.76953125 5.0078125 C0 3 0 3 0 0 Z " fill="#E5C08E" transform="translate(261,650)"/>
<path d="M0 0 C2.00293347 3.00440021 2.49271626 4.70993945 3.125 8.1875 C3.37636719 9.53908203 3.37636719 9.53908203 3.6328125 10.91796875 C3.75398437 11.60503906 3.87515625 12.29210937 4 13 C3.34 13 2.68 13 2 13 C1.34 13.66 0.68 14.32 0 15 C0 10.05 0 5.1 0 0 Z " fill="#BA9D6E" transform="translate(239,580)"/>
<path d="M0 0 C-1.39275254 3.3772445 -2.82273931 4.87070305 -5.9375 6.75 C-6.62714844 7.17796875 -7.31679688 7.6059375 -8.02734375 8.046875 C-10 9 -10 9 -13 9 C-13 8.34 -13 7.68 -13 7 C-11.9275 6.401875 -10.855 5.80375 -9.75 5.1875 C-7.59546359 3.96441973 -5.66935555 2.74978258 -3.6875 1.25 C-2 0 -2 0 0 0 Z " fill="#86B0B7" transform="translate(777,703)"/>
<path d="M0 0 C3 1 3 1 4.421875 3.21484375 C4.86015625 4.11332031 5.2984375 5.01179688 5.75 5.9375 C6.19859375 6.83339844 6.6471875 7.72929687 7.109375 8.65234375 C7.40328125 9.42707031 7.6971875 10.20179688 8 11 C7.67 11.66 7.34 12.32 7 13 C3.70759125 10.20145256 1.96437054 6.79326725 0 3 C0 2.01 0 1.02 0 0 Z " fill="#7EA7AD" transform="translate(815,466)"/>
<path d="M0 0 C3.96 0 7.92 0 12 0 C12 0.66 12 1.32 12 2 C13.65 2 15.3 2 17 2 C17.33 2.66 17.66 3.32 18 4 C5.33029613 3.22095672 5.33029613 3.22095672 0 1 C0 0.67 0 0.34 0 0 Z " fill="#84B2BB" transform="translate(696,393)"/>
<path d="M0 0 C-0.66 0 -1.32 0 -2 0 C-2 0.66 -2 1.32 -2 2 C-8.6 2.33 -15.2 2.66 -22 3 C-22 2.67 -22 2.34 -22 2 C-20.86820312 1.86722656 -19.73640625 1.73445313 -18.5703125 1.59765625 C-17.08851821 1.4194658 -15.60674864 1.24106971 -14.125 1.0625 C-13.00544922 0.93198242 -13.00544922 0.93198242 -11.86328125 0.79882812 C-1.52744391 -0.45823317 -1.52744391 -0.45823317 0 0 Z " fill="#ECA345" transform="translate(405,392)"/>
<path d="M0 0 C10.23 0 20.46 0 31 0 C31 0.33 31 0.66 31 1 C20.77 1 10.54 1 0 1 C0 0.67 0 0.34 0 0 Z " fill="#73725D" transform="translate(656,389)"/>
<path d="M0 0 C-2.25 2.0625 -2.25 2.0625 -5 4 C-7.3125 3.75 -7.3125 3.75 -9 3 C-9 3.66 -9 4.32 -9 5 C-10.65 5.33 -12.3 5.66 -14 6 C-14 5.34 -14 4.68 -14 4 C-13.34 4 -12.68 4 -12 4 C-12 3.34 -12 2.68 -12 2 C-10.37787941 1.47026689 -8.75218416 0.95146893 -7.125 0.4375 C-6.22007812 0.14746094 -5.31515625 -0.14257812 -4.3828125 -0.44140625 C-2 -1 -2 -1 0 0 Z " fill="#97B9BC" transform="translate(747,723)"/>
<path d="M0 0 C1.44122613 0.59522337 2.87785868 1.20157619 4.3125 1.8125 C5.11300781 2.14894531 5.91351563 2.48539063 6.73828125 2.83203125 C8.99056461 3.99512749 10.40885248 5.03809966 12 7 C12 7.66 12 8.32 12 9 C8.9168649 7.80100302 5.93720508 6.52299523 3 5 C3 4.34 3 3.68 3 3 C2.01 2.67 1.02 2.34 0 2 C0 1.34 0 0.68 0 0 Z " fill="#E5BF8C" transform="translate(357,629)"/>
<path d="M0 0 C-0.33 0.99 -0.66 1.98 -1 3 C-7.0546875 3.9765625 -7.0546875 3.9765625 -9 4 C-9.66 3.34 -10.32 2.68 -11 2 C-7.17679443 0.57741188 -4.08718695 -0.24042276 0 0 Z " fill="#D3A972" transform="translate(438,646)"/>
<path d="M0 0 C0.66 0.33 1.32 0.66 2 1 C-0.97 4.63 -3.94 8.26 -7 12 C-7.66 11.67 -8.32 11.34 -9 11 C-7.6930079 8.08440225 -6.34067534 6.16062339 -4 4 C-2.9171875 2.9171875 -2.9171875 2.9171875 -1.8125 1.8125 C-1.214375 1.214375 -0.61625 0.61625 0 0 Z " fill="#E8C596" transform="translate(349,508)"/>
<path d="M0 0 C3.63 0.66 7.26 1.32 11 2 C10.01 2.99 9.02 3.98 8 5 C2.25 3.125 2.25 3.125 0 2 C0 1.34 0 0.68 0 0 Z " fill="#DEB378" transform="translate(468,400)"/>
<path d="M0 0 C2.70931419 0.15481795 4.46584039 0.48172081 6.4453125 2.40234375 C7.67679642 3.89771708 8.8429837 5.4462924 10 7 C9.01 7.33 8.02 7.66 7 8 C7 7.34 7 6.68 7 6 C6.01 5.67 5.02 5.34 4 5 C4 4.34 4 3.68 4 3 C2.68 2.34 1.36 1.68 0 1 C0 0.67 0 0.34 0 0 Z " fill="#8BB0B2" transform="translate(553,693)"/>
<path d="M0 0 C4.02992782 0.55312735 8.02022924 1.1558062 12 2 C12 2.66 12 3.32 12 4 C7.71 3.34 3.42 2.68 -1 2 C-0.67 1.34 -0.34 0.68 0 0 Z " fill="#D9BD96" transform="translate(361,731)"/>
<path d="M0 0 C0 0.66 0 1.32 0 2 C-5.47619048 7 -5.47619048 7 -8 7 C-8 7.66 -8 8.32 -8 9 C-8.66 9 -9.32 9 -10 9 C-9.34 7.68 -8.68 6.36 -8 5 C-7.34 5 -6.68 5 -6 5 C-5.67 4.01 -5.34 3.02 -5 2 C-2 0 -2 0 0 0 Z " fill="#D9B686" transform="translate(532,692)"/>
<path d="M0 0 C0.99 0.33 1.98 0.66 3 1 C2.34 1 1.68 1 1 1 C1 1.66 1 2.32 1 3 C0.34 3 -0.32 3 -1 3 C-1.268125 3.598125 -1.53625 4.19625 -1.8125 4.8125 C-2.98493467 6.97224808 -4.19369282 8.35790256 -6 10 C-6.66 9.67 -7.32 9.34 -8 9 C-6.625 7 -6.625 7 -5 5 C-4.34 5 -3.68 5 -3 5 C-2.690625 4.360625 -2.38125 3.72125 -2.0625 3.0625 C-1 1 -1 1 0 0 Z " fill="#EDC691" transform="translate(540,682)"/>
<path d="M0 0 C3.41158256 1.13719419 4.11854601 2.04342944 6 5 C6 5.66 6 6.32 6 7 C6.99 7.33 7.98 7.66 9 8 C8.67 8.66 8.34 9.32 8 10 C3.97881358 7.93506643 1.98665002 6.07786057 0 2 C0 1.34 0 0.68 0 0 Z " fill="#A8C2BE" transform="translate(606,618)"/>
<path d="M0 0 C2.97 0 5.94 0 9 0 C9 0.66 9 1.32 9 2 C5.04 2.66 1.08 3.32 -3 4 C-3 3.34 -3 2.68 -3 2 C-2.01 2 -1.02 2 0 2 C0 1.34 0 0.68 0 0 Z " fill="#F0C084" transform="translate(387,482)"/>
<path d="M0 0 C1.65 0.33 3.3 0.66 5 1 C3.9375 3 3.9375 3 2 5 C-1.6875 5.25 -1.6875 5.25 -5 5 C-5 4.34 -5 3.68 -5 3 C-3.35 2.34 -1.7 1.68 0 1 C0 0.67 0 0.34 0 0 Z " fill="#CEAE7E" transform="translate(352,399)"/>
<path d="M0 0 C0.66 0.33 1.32 0.66 2 1 C-0.51407619 5.28324091 -2.12314139 7.64531705 -7 9 C-6.34 7.68 -5.68 6.36 -5 5 C-4.34 5 -3.68 5 -3 5 C-2.690625 4.360625 -2.38125 3.72125 -2.0625 3.0625 C-1 1 -1 1 0 0 Z " fill="#A8BDB8" transform="translate(800,681)"/>
<path d="M0 0 C0.33 0.66 0.66 1.32 1 2 C-2.07192208 5.07192208 -4.84385358 7.61461786 -9 9 C-7.65662007 4.96986021 -5.30901479 3.56617473 -2 1 C-1.34 0.67 -0.68 0.34 0 0 Z " fill="#F0CEA0" transform="translate(360,498)"/>
<path d="M0 0 C4.95696581 1.23924145 7.11658466 2.78577758 10 7 C6.00118212 6.38479725 3.19641774 4.39731331 0 2 C0 1.34 0 0.68 0 0 Z " fill="#DEB278" transform="translate(520,429)"/>
<path d="M0 0 C0.66 0 1.32 0 2 0 C1.34 1.65 0.68 3.3 0 5 C-0.66 5 -1.32 5 -2 5 C-2.66 6.65 -3.32 8.3 -4 10 C-5 7 -5 7 -4.0625 4.8125 C-3.711875 4.214375 -3.36125 3.61625 -3 3 C-2.34 3 -1.68 3 -1 3 C-0.67 2.01 -0.34 1.02 0 0 Z " fill="#93B6BB" transform="translate(814,663)"/>
<path d="M0 0 C0.99 0.33 1.98 0.66 3 1 C1.50163895 4.11198065 -0.19933758 7.0534615 -2 10 C-3.39195915 5.82412255 -1.82323219 3.86525224 0 0 Z " fill="#F0C489" transform="translate(338,521)"/>
<path d="M0 0 C0.66 0.33 1.32 0.66 2 1 C0.9024777 3.99324263 0.32317108 4.84610901 -2.625 6.25 C-3.40875 6.4975 -4.1925 6.745 -5 7 C-4.67 5.68 -4.34 4.36 -4 3 C-2.68 2.67 -1.36 2.34 0 2 C0 1.34 0 0.68 0 0 Z " fill="#7AA8AF" transform="translate(590,409)"/>
<path d="M0 0 C3 1 3 1 4 2.9375 C4.33 3.618125 4.66 4.29875 5 5 C5.99 5.66 6.98 6.32 8 7 C8 7.66 8 8.32 8 9 C4.68470727 8.01437243 3.25050621 7.34552581 1.1875 4.5 C0 2 0 2 0 0 Z " fill="#E5B87D" transform="translate(271,666)"/>
<path d="M0 0 C0.47050781 0.40992188 0.94101562 0.81984375 1.42578125 1.2421875 C2.04839844 1.78101563 2.67101562 2.31984375 3.3125 2.875 C4.23482422 3.67550781 4.23482422 3.67550781 5.17578125 4.4921875 C7.13498212 6.1640447 7.13498212 6.1640447 10 8 C10 8.66 10 9.32 10 10 C5.86360664 8.40907948 2.76786752 5.39525082 0 2 C0 1.34 0 0.68 0 0 Z " fill="#D9BD97" transform="translate(347,619)"/>
<path d="M0 0 C0.66 0.33 1.32 0.66 2 1 C0.37660195 2.70884005 -1.29319053 4.37446717 -3 6 C-3.66 6 -4.32 6 -5 6 C-5 6.66 -5 7.32 -5 8 C-5.66 8 -6.32 8 -7 8 C-6.8125 6.1875 -6.8125 6.1875 -6 4 C-3.5 2.3125 -3.5 2.3125 -1 1 C-0.67 0.67 -0.34 0.34 0 0 Z " fill="#D8AB70" transform="translate(368,491)"/>
<path d="M0 0 C0.99 0.33 1.98 0.66 3 1 C3 1.66 3 2.32 3 3 C3.99 3.33 4.98 3.66 6 4 C7.6875 6.5625 7.6875 6.5625 9 9 C6.04346256 7.6273219 3.4350144 6.18311636 1 4 C0.25 1.8125 0.25 1.8125 0 0 Z " fill="#A7C1C1" transform="translate(793,440)"/>
<path d="M0 0 C3.375 -0.1875 3.375 -0.1875 7 0 C7.66 0.99 8.32 1.98 9 3 C6.03 3 3.06 3 0 3 C0 2.01 0 1.02 0 0 Z " fill="#B7945F" transform="translate(391,736)"/>
<path d="M0 0 C0.7425 0.61875 1.485 1.2375 2.25 1.875 C4.48801188 3.60437281 6.43739987 4.86106661 9 6 C8.67 6.66 8.34 7.32 8 8 C4.82461668 7.65978036 3.97723135 6.97533396 1.75 4.5625 C0 2 0 2 0 0 Z " fill="#97B6B8" transform="translate(616,628)"/>
<path d="M0 0 C1.32 0.33 2.64 0.66 4 1 C4 1.66 4 2.32 4 3 C4.66 3 5.32 3 6 3 C6 4.32 6 5.64 6 7 C5.34 7 4.68 7 4 7 C3.34 5.35 2.68 3.7 2 2 C1.34 2 0.68 2 0 2 C0 1.34 0 0.68 0 0 Z " fill="#68A1AF" transform="translate(600,613)"/>
<path d="M0 0 C0.99 0.33 1.98 0.66 3 1 C1.48065294 4.03869411 -0.98004772 4.64410306 -4 6 C-4.66 6 -5.32 6 -6 6 C-6 5.34 -6 4.68 -6 4 C-3.1875 1.8125 -3.1875 1.8125 0 0 Z " fill="#97BCBC" transform="translate(569,423)"/>
<path d="M0 0 C2.31 0.33 4.62 0.66 7 1 C7 1.99 7 2.98 7 4 C6.01 4 5.02 4 4 4 C4 3.34 4 2.68 4 2 C2.68 2 1.36 2 0 2 C0 1.34 0 0.68 0 0 Z " fill="#75A0A8" transform="translate(616,729)"/>
<path d="M0 0 C0.33 0 0.66 0 1 0 C1 2.64 1 5.28 1 8 C0.01 8.33 -0.98 8.66 -2 9 C-2.20140476 5.37471432 -1.85776765 3.13498292 0 0 Z " fill="#9CB0A0" transform="translate(843,526)"/>
<path d="M0 0 C1.9375 0.6875 1.9375 0.6875 4 2 C4.75 4.625 4.75 4.625 5 7 C2.5 5.75 2.5 5.75 0 4 C0 2.68 0 1.36 0 0 Z " fill="#9BB6B3" transform="translate(810,459)"/>
<path d="" fill="#686A59" transform="translate(0,0)"/>
<path d="M0 0 C3 1 3 1 3 1 Z " fill="#EAD092" transform="translate(389,390)"/>
<path d="M0 0 C2 1 2 1 2 1 Z " fill="#EAD092" transform="translate(456,735)"/>
<path d="M0 0 C2 1 2 1 2 1 Z " fill="#EAD092" transform="translate(501,716)"/>
<path d="" fill="#EAD092" transform="translate(0,0)"/>
<path d="" fill="#EAD092" transform="translate(0,0)"/>
<path d="" fill="#EAD092" transform="translate(0,0)"/>
<path d="" fill="#EAD092" transform="translate(0,0)"/>
<path d="M0 0 C2 1 2 1 2 1 Z " fill="#EAD092" transform="translate(433,485)"/>
<path d="M0 0 C2 1 2 1 2 1 Z " fill="#EAD092" transform="translate(391,485)"/>
<path d="M0 0 C2 1 2 1 2 1 Z " fill="#EAD092" transform="translate(471,399)"/>
<path d="M0 0 C2 1 2 1 2 1 Z " fill="#EAD092" transform="translate(703,392)"/>
<path d="M0 0 C2 1 2 1 2 1 Z " fill="#EAD092" transform="translate(639,392)"/>
<path d="M0 0 C2 1 2 1 2 1 Z " fill="#EAD092" transform="translate(443,392)"/>
<path d="M0 0 C2 1 2 1 2 1 Z " fill="#EAD092" transform="translate(434,390)"/>
<path d="" fill="#EAD092" transform="translate(0,0)"/>
<path d="" fill="#EAD092" transform="translate(0,0)"/>
<path d="" fill="#EAD092" transform="translate(0,0)"/>
<path d="" fill="#EAD092" transform="translate(0,0)"/>
<path d="" fill="#EAD092" transform="translate(0,0)"/>
<path d="" fill="#EAD092" transform="translate(0,0)"/>
<path d="" fill="#EAD092" transform="translate(0,0)"/>
<path d="" fill="#EAD092" transform="translate(0,0)"/>
<path d="" fill="#EAD092" transform="translate(0,0)"/>
<path d="" fill="#EAD092" transform="translate(0,0)"/>
<path d="" fill="#EAD092" transform="translate(0,0)"/>
<path d="" fill="#EAD092" transform="translate(0,0)"/>
<path d="" fill="#EAD092" transform="translate(0,0)"/>
<path d="" fill="#EAD092" transform="translate(0,0)"/>
<path d="" fill="#EAD092" transform="translate(0,0)"/>
<path d="" fill="#EAD092" transform="translate(0,0)"/>
<path d="" fill="#EAD092" transform="translate(0,0)"/>
<path d="" fill="#28383D" transform="translate(0,0)"/>
<path d="" fill="#EAD092" transform="translate(0,0)"/>
<path d="" fill="#EAD092" transform="translate(0,0)"/>
<path d="" fill="#EAD092" transform="translate(0,0)"/>
<path d="" fill="#EAD092" transform="translate(0,0)"/>
<path d="" fill="#EAD092" transform="translate(0,0)"/>
<path d="" fill="#EAD092" transform="translate(0,0)"/>
<path d="" fill="#28383D" transform="translate(0,0)"/>
<path d="" fill="#28383D" transform="translate(0,0)"/>
<path d="" fill="#EAD092" transform="translate(0,0)"/>
<path d="" fill="#EAD092" transform="translate(0,0)"/>
<path d="" fill="#EAD092" transform="translate(0,0)"/>
<path d="" fill="#EAD092" transform="translate(0,0)"/>
</svg>
