<?xml version="1.0" encoding="UTF-8"?>
<svg version="1.1" xmlns="http://www.w3.org/2000/svg" width="800" height="500">
<path d="M0 0 C264 0 528 0 800 0 C800 165 800 330 800 500 C536 500 272 500 0 500 C0 335 0 170 0 0 Z " fill="#FEFEFE" transform="translate(0,0)"/>
<path d="M0 0 C8.91 0 17.82 0 27 0 C27.33 6.27 27.66 12.54 28 19 C29.8975 18.195625 31.795 17.39125 33.75 16.5625 C45.93580917 11.39677655 60.13887004 10.78370788 72.625 15.5625 C79.02596218 18.17880715 84.6317863 21.66130673 90 26 C91.03125 26.804375 92.0625 27.60875 93.125 28.4375 C93.74375 28.953125 94.3625 29.46875 95 30 C95.48726563 29.50371094 95.97453125 29.00742188 96.4765625 28.49609375 C108.80563067 16.68260479 123.07745965 12.26194187 139.90234375 12.62109375 C152.65683846 13.2821571 164.46286459 19.75729638 174 28 C185.10051712 40.79220551 189 50.98111582 189 68 C180.09 68 171.18 68 162 68 C161.01 62.555 161.01 62.555 160 57 C155.69213609 48.9996813 151.2450684 45.39448775 143.125 41.6875 C134.94246026 39.88734126 128.21003994 40.65257332 121 45 C114.2204605 49.80491634 110.80934011 54.7883795 109 63 C108.2369769 70.63023102 110.01284962 77.8056075 114.5078125 84.1171875 C120.07490007 90.15035682 126.72376783 93.11223254 134.88696289 93.54589844 C137.08191653 93.58671384 139.2773245 93.60695127 141.47265625 93.609375 C142.6363121 93.62591125 143.79996796 93.64244751 144.99888611 93.65948486 C148.68681219 93.70776373 152.37432647 93.7292921 156.0625 93.75 C158.57489028 93.77817634 161.08726156 93.80810607 163.59960938 93.83984375 C169.73299866 93.91351748 175.86627309 93.96527762 182 94 C177.985097 104.53149989 168.81692336 111.75144146 158.8359375 116.5078125 C145.57600192 122.15377047 130.20861032 123.60627461 116.3125 119 C109.29261657 116.04692404 102.68464899 111.83631735 97.38671875 106.3203125 C95.92104101 104.73748896 95.92104101 104.73748896 93 104 C93 104.66 93 105.32 93 106 C81.42524974 115.83002687 68.91245932 121.61716938 53.625 121.4375 C52.7067041 121.42920166 51.7884082 121.42090332 50.84228516 121.41235352 C35.16665427 121.02330103 23.0137334 113.97037013 12.29296875 102.73828125 C1.20546253 89.49749443 -0.45158594 76.57141329 -0.29296875 59.9609375 C-0.28736373 58.22645436 -0.28309792 56.49196642 -0.28010559 54.75747681 C-0.26872805 50.22335371 -0.23932311 45.68952535 -0.20599365 41.15551758 C-0.17513869 36.51647934 -0.16156749 31.87739283 -0.14648438 27.23828125 C-0.11444556 18.15870477 -0.06173678 9.07942316 0 0 Z " fill="#E8911C" transform="translate(44,191)"/>
<path d="M0 0 C42 0 42 0 50 4 C56.19062447 10.19062447 57.39289724 16.67759308 57.45898438 25.11132812 C57.45189453 26.20896484 57.44480469 27.30660156 57.4375 28.4375 C57.4674707 30.0781543 57.4674707 30.0781543 57.49804688 31.75195312 C57.49389784 38.64350029 56.68648166 43.14137208 53 49 C50.37247373 51.54790426 49.69284426 52 46 52 C46 52.66 46 53.32 46 54 C47.11375 54.0928125 47.11375 54.0928125 48.25 54.1875 C51.95209747 55.28130152 52.90633812 56.78971845 55 60 C60.93542913 72.31051967 60.85698129 88.53723743 56.90625 101.5234375 C54.2984724 108.64986423 51.51496262 113.74698906 45 118 C31.05910121 123.57635952 15.01480751 120 0 120 C0 80.4 0 40.8 0 0 Z " fill="#E9911B" transform="translate(268,186)"/>
<path d="M0 0 C11.1419905 7.79341375 18.88355028 19.32716988 22.18359375 32.52734375 C22.18359375 36.81734375 22.18359375 41.10734375 22.18359375 45.52734375 C13.27359375 45.52734375 4.36359375 45.52734375 -4.81640625 45.52734375 C-5.80640625 40.08234375 -5.80640625 40.08234375 -6.81640625 34.52734375 C-11.12427016 26.52702505 -15.57133785 22.9218315 -23.69140625 19.21484375 C-31.87394599 17.41468501 -38.60636631 18.17991707 -45.81640625 22.52734375 C-52.59594575 27.33226009 -56.00706614 32.31572325 -57.81640625 40.52734375 C-58.57942935 48.15757477 -56.80355663 55.33295125 -52.30859375 61.64453125 C-46.74150618 67.67770057 -40.09263842 70.63957629 -31.92944336 71.07324219 C-29.73448972 71.11405759 -27.53908175 71.13429502 -25.34375 71.13671875 C-24.18009415 71.153255 -23.01643829 71.16979126 -21.81752014 71.18682861 C-18.12959406 71.23510748 -14.44207978 71.25663585 -10.75390625 71.27734375 C-8.24151597 71.30552009 -5.72914469 71.33544982 -3.21679688 71.3671875 C2.91659241 71.44086123 9.04986684 71.49262137 15.18359375 71.52734375 C11.16869075 82.05884364 2.00051711 89.27878521 -7.98046875 94.03515625 C-21.24040433 99.68111422 -36.60779593 101.13361836 -50.50390625 96.52734375 C-56.98259528 93.78397543 -62.4579808 90.05534437 -67.81640625 85.52734375 C-68.47253906 84.98335938 -69.12867188 84.439375 -69.8046875 83.87890625 C-79.79029033 74.80108549 -85.28891779 61.35617136 -86.1953125 48.05859375 C-86.82605638 32.07638481 -81.95265733 19.56242762 -71.62890625 7.33984375 C-52.20277824 -13.49492424 -23.28152087 -14.56608152 0 0 Z " fill="#2A889F" transform="translate(210.81640625,213.47265625)"/>
<path d="M0 0 C8.25 0 16.5 0 25 0 C25.01981934 2.4735498 25.03963867 4.94709961 25.06005859 7.49560547 C25.12686566 15.65409422 25.2045063 23.81245369 25.28752708 31.97079277 C25.33754421 36.91881361 25.3838736 41.86681254 25.421875 46.81494141 C25.4586596 51.58717966 25.50500057 56.3592369 25.55806351 61.13132095 C25.57664387 62.95500651 25.59173826 64.77873093 25.60334396 66.60247421 C25.6201444 69.15037456 25.64916358 71.69785702 25.68115234 74.24560547 C25.68331253 75.00517548 25.68547272 75.76474548 25.68769836 76.54733276 C25.62027029 80.73060566 25.62027029 80.73060566 28 84 C30.58354218 84.16687448 30.58354218 84.16687448 33 84 C34.82436734 79.32788131 35.30370302 75.12083674 35.31884766 70.15869141 C35.33391609 69.01620941 35.33391609 69.01620941 35.34928894 67.85064697 C35.38000409 65.35095932 35.39712332 62.85137821 35.4140625 60.3515625 C35.43278356 58.6113494 35.45235767 56.87114528 35.4727478 55.13095093 C35.52397596 50.56407989 35.56365142 45.99717945 35.60089111 41.43017578 C35.64098929 36.76457502 35.69205507 32.09909557 35.7421875 27.43359375 C35.8388365 18.28913944 35.92226207 9.14463465 36 0 C44.25 0 52.5 0 61 0 C61 33.99 61 67.98 61 103 C52.75 103 44.5 103 36 103 C35.505 99.04 35.505 99.04 35 95 C34.443125 95.928125 33.88625 96.85625 33.3125 97.8125 C30.93609644 101.08808329 29.58374443 102.27166935 26 104 C20.3656623 104.79166011 14.13211766 105.05171106 8.9375 102.4375 C3.92843259 98.28103981 1.71370806 93.25186621 0 87 C-0.2667122 84.10755128 -0.25340853 81.23547074 -0.22705078 78.33251953 C-0.22734283 77.48308273 -0.22763489 76.63364594 -0.22793579 75.75846863 C-0.22654869 72.96647731 -0.21101678 70.17475688 -0.1953125 67.3828125 C-0.19158017 65.4408279 -0.18873423 63.49884141 -0.18673706 61.55685425 C-0.17911798 56.45722207 -0.1594843 51.35770466 -0.1373291 46.25811768 C-0.1168335 41.04969841 -0.10772741 35.84126051 -0.09765625 30.6328125 C-0.07623676 20.42181658 -0.04106867 10.21093581 0 0 Z " fill="#E9931E" transform="translate(334,203)"/>
<path d="M0 0 C6.78712065 3.81349923 10.00619038 8.66383531 12.53540039 15.92211914 C14.1357652 22.69987642 13.74127849 29.57804669 13.5859375 36.5 C13.5034375 41.718125 13.4209375 46.93625 13.3359375 52.3125 C1.4559375 52.3125 -10.4240625 52.3125 -22.6640625 52.3125 C-22.5403125 56.705625 -22.4165625 61.09875 -22.2890625 65.625 C-22.25506348 67.00727783 -22.22106445 68.38955566 -22.18603516 69.8137207 C-22.1504248 70.90257568 -22.11481445 71.99143066 -22.078125 73.11328125 C-22.03099365 74.78644409 -22.03099365 74.78644409 -21.98291016 76.4934082 C-21.8588135 79.51618786 -21.8588135 79.51618786 -19.6640625 82.3125 C-16.58040379 82.5627157 -16.58040379 82.5627157 -13.6640625 82.3125 C-12.51751768 80.01941037 -12.46677133 78.51340344 -12.34765625 75.9609375 C-12.30954834 75.19442871 -12.27144043 74.42791992 -12.23217773 73.63818359 C-12.18907471 72.66445801 -12.14597168 71.69073242 -12.1015625 70.6875 C-11.9571875 67.59375 -11.8128125 64.5 -11.6640625 61.3125 C-3.4140625 61.3125 4.8359375 61.3125 13.3359375 61.3125 C13.78561639 73.34141037 13.53880331 85.61820404 5.3359375 95.3125 C-0.35079014 100.84126298 -7.00829686 102.68510922 -14.73046875 102.72265625 C-15.53355469 102.71105469 -16.33664062 102.69945312 -17.1640625 102.6875 C-17.96714844 102.69910156 -18.77023437 102.71070313 -19.59765625 102.72265625 C-26.93908198 102.6869605 -33.66589259 101.03649158 -39.28515625 95.953125 C-47.06626824 86.69514473 -47.97415193 75.39628041 -47.96484375 63.8515625 C-47.96912888 62.66581635 -47.973414 61.48007019 -47.97782898 60.25839233 C-47.98355276 57.75885657 -47.98408699 55.25930416 -47.97973633 52.75976562 C-47.97657848 48.95673917 -48.00005415 45.15449286 -48.02539062 41.3515625 C-48.02766417 38.91406347 -48.02836686 36.47656237 -48.02734375 34.0390625 C-48.0365535 32.91271393 -48.04576324 31.78636536 -48.05525208 30.62588501 C-47.99739097 20.64393227 -46.60881433 12.36191454 -39.55859375 5 C-28.99297345 -4.41102674 -12.72984046 -5.50479588 0 0 Z " fill="#2B89A0" transform="translate(621.6640625,204.6875)"/>
<path d="M0 0 C5.70528114 3.1817914 8.43254778 6.40976563 10.63833046 12.57652283 C11.6624399 16.32018698 11.64299479 19.93952547 11.59057617 23.79882812 C11.59123329 25.08805176 11.59123329 25.08805176 11.59190369 26.40332031 C11.58982969 29.21703577 11.56656489 32.03013987 11.54296875 34.84375 C11.53736784 36.80529454 11.53310008 38.7668433 11.53010559 40.72839355 C11.51869578 45.87080639 11.48926203 51.01296176 11.45599365 56.15527344 C11.42520924 61.41077187 11.41158241 66.66631223 11.39648438 71.921875 C11.36438842 82.21888085 11.31165223 92.51562865 11.25 102.8125 C3.33 102.8125 -4.59 102.8125 -12.75 102.8125 C-12.779729 99.10217529 -12.779729 99.10217529 -12.81005859 95.31689453 C-12.87686566 87.15840578 -12.9545063 79.00004631 -13.03752708 70.84170723 C-13.08754421 65.89368639 -13.1338736 60.94568746 -13.171875 55.99755859 C-13.2086596 51.22532034 -13.25500057 46.4532631 -13.30806351 41.68117905 C-13.32664387 39.85749349 -13.34173826 38.03376907 -13.35334396 36.21002579 C-13.3701444 33.66212544 -13.39916358 31.11464298 -13.43115234 28.56689453 C-13.43331253 27.80732452 -13.43547272 27.04775452 -13.43769836 26.26516724 C-13.37027029 22.08189434 -13.37027029 22.08189434 -15.75 18.8125 C-18.84926819 19.13448966 -18.84926819 19.13448966 -21.75 19.8125 C-22.98523684 23.66240595 -22.92353692 27.51835628 -22.95532227 31.51855469 C-22.97017166 32.67522896 -22.97017166 32.67522896 -22.98532104 33.85527039 C-23.01685078 36.39827427 -23.04165968 38.94129682 -23.06640625 41.484375 C-23.08698314 43.24986246 -23.10797981 45.01534507 -23.12937927 46.78082275 C-23.18452399 51.42336091 -23.23396675 56.06594298 -23.28222656 60.70855713 C-23.33249711 65.44767149 -23.38815417 70.18672225 -23.44335938 74.92578125 C-23.550848 84.2213018 -23.65181569 93.51687651 -23.75 102.8125 C-32 102.8125 -40.25 102.8125 -48.75 102.8125 C-48.75 68.8225 -48.75 34.8325 -48.75 -0.1875 C-40.5 -0.1875 -32.25 -0.1875 -23.75 -0.1875 C-23.42 2.4525 -23.09 5.0925 -22.75 7.8125 C-22.36328125 7.33039063 -21.9765625 6.84828125 -21.578125 6.3515625 C-21.05734375 5.71992188 -20.5365625 5.08828125 -20 4.4375 C-19.48953125 3.81101563 -18.9790625 3.18453125 -18.453125 2.5390625 C-13.2754297 -2.70988549 -6.59119598 -2.08721206 0 0 Z " fill="#E9921D" transform="translate(553.75,203.1875)"/>
<path d="M0 0 C5.95004016 4.51599243 8.14598259 10.6581491 9.91015625 17.71484375 C9.91015625 20.68484375 9.91015625 23.65484375 9.91015625 26.71484375 C1.33015625 26.71484375 -7.24984375 26.71484375 -16.08984375 26.71484375 C-16.58484375 22.25984375 -16.58484375 22.25984375 -17.08984375 17.71484375 C-17.74984375 16.72484375 -18.40984375 15.73484375 -19.08984375 14.71484375 C-22.17350246 14.46462805 -22.17350246 14.46462805 -25.08984375 14.71484375 C-25.13109375 15.95234375 -25.17234375 17.18984375 -25.21484375 18.46484375 C-25.23804688 19.1609375 -25.26125 19.85703125 -25.28515625 20.57421875 C-24.98167653 23.90035653 -23.88513398 26.02577111 -21.35327148 28.21948242 C-20.66692627 28.68588135 -19.98058105 29.15228027 -19.2734375 29.6328125 C-18.51313232 30.16036133 -17.75282715 30.68791016 -16.96948242 31.23144531 C-16.16357666 31.7828418 -15.3576709 32.33423828 -14.52734375 32.90234375 C-3.80176523 40.4638819 5.62177996 47.84971489 9.91015625 60.71484375 C10.52231643 71.85145009 10.97417528 81.88678127 3.78515625 91.02734375 C0.07071329 94.98626172 -3.97248664 97.04058828 -9.08984375 98.71484375 C-9.67121094 98.905625 -10.25257813 99.09640625 -10.8515625 99.29296875 C-20.37798872 101.08852552 -31.73573005 100.97542287 -40.08984375 95.71484375 C-46.85177552 91.01032145 -49.61741372 84.68381356 -51.08984375 76.71484375 C-51.49332088 71.35542595 -51.2753039 66.09318818 -51.08984375 60.71484375 C-42.83984375 60.71484375 -34.58984375 60.71484375 -26.08984375 60.71484375 C-25.65234375 68.58984375 -25.65234375 68.58984375 -25.52172852 71.06591797 C-25.35392832 75.01948791 -25.35392832 75.01948791 -24.08984375 78.71484375 C-21.76827778 79.12213603 -19.43296505 79.45923052 -17.08984375 79.71484375 C-15.32403831 74.41742742 -15.43009544 69.49616419 -17.33984375 64.33984375 C-21.89156676 57.24498725 -30.28108651 52.07285178 -36.90234375 47.08984375 C-44.01127232 41.56784479 -49.48815356 35.81015589 -51.08984375 26.71484375 C-51.91350721 19.01359038 -51.52515287 12.24844359 -47.08984375 5.71484375 C-35.51304563 -8.01387685 -14.79841462 -9.10033348 0 0 Z " fill="#E9921D" transform="translate(759.08984375,207.28515625)"/>
<path d="M0 0 C4.90446591 3.83827767 8.7862189 9.45202447 10.8125 15.375 C11.1123644 19.5731016 11 23.79120258 11 28 C2.75 28 -5.5 28 -14 28 C-14.66 24.7 -15.32 21.4 -16 18 C-16.495 17.01 -16.495 17.01 -17 16 C-19.41645782 15.83312552 -19.41645782 15.83312552 -22 16 C-24.41885501 17.96369175 -24.41885501 17.96369175 -24.125 21.6875 C-23.19373102 27.38768488 -19.48500701 29.76708505 -15 33 C-13.88025415 33.78318069 -12.75906444 34.56429962 -11.63671875 35.34375 C-0.46049267 43.11074225 8.01883941 50.4575275 12 64 C13.0196794 73.9003756 12.19026977 83.02685102 6.375 91.31640625 C0.37139998 98.10797877 -6.91469234 100.54389509 -15.7890625 101.33984375 C-25.75157827 101.58940577 -34.11682672 100.44986905 -42 94 C-50.56989809 84.86854164 -50.32213693 73.81168749 -50 62 C-41.75 62 -33.5 62 -25 62 C-24.5625 69.25 -24.5625 69.25 -24.43188477 71.51269531 C-24.22426165 74.77672382 -23.96136915 77.86545184 -23 81 C-20.6568787 80.74438677 -18.32156597 80.40729228 -16 80 C-14.13943114 76.27886228 -14.57249417 72.06130543 -15 68 C-18.51008226 60.36938638 -26.36786791 55.18514876 -32.97167969 50.27954102 C-41.12816425 44.19699469 -46.59337524 39.14828935 -49 29 C-49.79392603 21.1944536 -50.17109945 13.58726424 -45.67578125 6.86328125 C-34.32342317 -5.75927074 -14.67322477 -7.82400971 0 0 Z " fill="#E9921D" transform="translate(691,206)"/>
<path d="M0 0 C4.59541051 4.44087458 6.99454218 9.22319225 8.125 15.5 C8.125 18.8 8.125 22.1 8.125 25.5 C-0.455 25.5 -9.035 25.5 -17.875 25.5 C-18.205 22.2 -18.535 18.9 -18.875 15.5 C-19.535 14.84 -20.195 14.18 -20.875 13.5 C-24.18183466 13.78983269 -24.18183466 13.78983269 -26.875 15.5 C-27.55718216 19.59309293 -27.03833171 21.25019856 -24.75 24.75 C-20.05723776 29.80115935 -14.07877691 33.47186453 -8.453125 37.39550781 C-0.82977549 42.73090898 5.12469001 49.49907003 8.125 58.5 C9.105376 68.75671856 9.89643628 80.09170253 3.125 88.5 C-1.9860226 94.55357482 -9.04682305 97.84143296 -16.88867188 98.72753906 C-25.36707896 99.33752401 -33.59478146 99.40456828 -40.875 94.5 C-41.51824219 94.0875 -42.16148437 93.675 -42.82421875 93.25 C-48.0741359 89.3758473 -49.92761887 84.58294857 -51.875 78.5 C-52.205 77.51 -52.535 76.52 -52.875 75.5 C-52.94556698 72.75917841 -52.96836154 70.05153023 -52.9375 67.3125 C-52.916875 64.734375 -52.89625 62.15625 -52.875 59.5 C-44.625 59.5 -36.375 59.5 -27.875 59.5 C-27.4375 66.8125 -27.4375 66.8125 -27.30688477 69.1027832 C-27.11664809 72.10594873 -26.83099652 74.63201045 -25.875 77.5 C-23.565 77.5 -21.255 77.5 -18.875 77.5 C-17.12805089 72.25915268 -16.96432597 67.39723756 -19.375 62.375 C-23.94183297 57.12314208 -29.23190009 52.96578925 -34.77612305 48.79907227 C-42.7469519 42.7924471 -50.54395417 36.87336482 -52.20996094 26.39282227 C-52.83532263 18.25860179 -53.31533486 9.83020151 -47.84375 3.26171875 C-34.87295723 -8.34508192 -14.16813542 -11.26066789 0 0 Z " fill="#E9921C" transform="translate(454.875,208.5)"/>
<path d="M0 0 C8.25 0 16.5 0 25 0 C25 33.99 25 67.98 25 103 C16.75 103 8.5 103 0 103 C0 69.01 0 35.02 0 0 Z " fill="#E9931E" transform="translate(471,203)"/>
<path d="M0 0 C6.50655245 4.66900034 11.36728113 9.94223004 13 18 C13.92394063 26.63354356 12.0210077 34.32618132 6.75 41.3125 C-0.55213506 48.44867744 -6.91647216 50.32481965 -16.9609375 50.21484375 C-24.03380785 49.71483364 -28.97734713 47.02265287 -34 42 C-39.77844608 34.25272049 -42.23969782 26.69338186 -41 17 C-38.41142194 8.46774514 -32.6467533 2.26281271 -24.9921875 -2.16015625 C-16.4824909 -5.86376914 -7.79036678 -4.77247694 0 0 Z " fill="#FEFDFC" transform="translate(112,235)"/>
<path d="M0 0 C7.22432312 3.89189124 11.8799869 9.31050748 14.3203125 17.25 C14.3203125 19.89 14.3203125 22.53 14.3203125 25.25 C-3.1696875 25.25 -20.6596875 25.25 -38.6796875 25.25 C-39.0096875 26.24 -39.3396875 27.23 -39.6796875 28.25 C-40.1528964 19.57450344 -38.64347707 13.2101653 -32.9921875 6.4375 C-23.91860678 -3.15504936 -11.95602273 -5.39707609 0 0 Z " fill="#A7C6D0" transform="translate(191.6796875,233.75)"/>
<path d="M0 0 C8.25 0 16.5 0 25 0 C25 5.94 25 11.88 25 18 C16.75 18 8.5 18 0 18 C0 12.06 0 6.12 0 0 Z " fill="#EA9728" transform="translate(471,179)"/>
<path d="M0 0 C8 0 8 0 10.46484375 1.71875 C12.87842715 6.87755422 12.61712834 11.87649458 12.5625 17.5 C12.58634766 18.62792969 12.61019531 19.75585938 12.63476562 20.91796875 C12.62593932 25.89012211 12.61916303 29.03147682 9.90234375 33.28125 C7 35 7 35 0 35 C0 23.45 0 11.9 0 0 Z " fill="#FEFBF7" transform="translate(291,250)"/>
<path d="M0 0 C2.64 0 5.28 0 8 0 C10.98648563 2.98648563 10.29249394 5.76547493 10.32226562 9.84960938 C10.31904297 10.86861328 10.31582031 11.88761719 10.3125 12.9375 C10.32861328 13.95263672 10.34472656 14.96777344 10.36132812 16.01367188 C10.36197266 16.98755859 10.36261719 17.96144531 10.36328125 18.96484375 C10.36775269 20.30470337 10.36775269 20.30470337 10.37231445 21.67163086 C10 24 10 24 8.91479492 25.81469727 C7 27 7 27 0 27 C0 18.09 0 9.18 0 0 Z " fill="#FEFBF8" transform="translate(291,204)"/>
<path d="M0 0 C1.4540625 0.2165625 1.4540625 0.2165625 2.9375 0.4375 C5.10676659 3.69139988 5.17830049 4.57145957 5.1328125 8.32421875 C5.12314453 9.7309082 5.12314453 9.7309082 5.11328125 11.16601562 C5.09652344 12.14248047 5.07976563 13.11894531 5.0625 14.125 C5.05347656 15.11306641 5.04445313 16.10113281 5.03515625 17.11914062 C5.01158566 19.55869706 4.97571469 21.99812901 4.9375 24.4375 C1.3075 24.4375 -2.3225 24.4375 -6.0625 24.4375 C-6.14346264 21.18700012 -6.20298115 17.93851766 -6.25 14.6875 C-6.27513672 13.76710937 -6.30027344 12.84671875 -6.32617188 11.8984375 C-6.33583984 11.00898438 -6.34550781 10.11953125 -6.35546875 9.203125 C-6.3711792 8.38618164 -6.38688965 7.56923828 -6.40307617 6.72753906 C-5.77443425 2.50054177 -4.21346006 0.60192287 0 0 Z " fill="#F9FCFC" transform="translate(605.0625,220.5625)"/>
</svg>
